<?xml version="1.0" encoding="utf-8"?>
<!-- Generator: Adobe Illustrator 21.0.0, SVG Export Plug-In . SVG Version: 6.00 Build 0)  -->
<svg version="1.1" id="Capa_1" xmlns="http://www.w3.org/2000/svg" xmlns:xlink="http://www.w3.org/1999/xlink" x="0px" y="0px"
	 viewBox="0 0 512 512" style="enable-background:new 0 0 512 512;" xml:space="preserve">
<style type="text/css">
	.st0{fill:#FFFF00;stroke:#000000;stroke-miterlimit:10;}
</style>
<polygon class="st0" points="89,256 213,181.7 267,78 293,97.1 395,326 376,356 315,330 221.3,333 197,350 235,422 221.3,453 
	190,453 144,373 100,357 47,337 58,287 "/>
<g>
	<g>
		<path d="M444.6,161.3l-37,16.2c-6.8,3-9.9,10.9-6.9,17.7s10.9,9.9,17.7,6.9l37-16.2c6.8-3,9.9-10.9,6.9-17.7
			C459.3,161.4,451.4,158.3,444.6,161.3z"/>
	</g>
</g>
<g>
	<g>
		<path d="M462.8,245.8L427.3,232c-6.9-2.7-14.7,0.7-17.4,7.7c-2.7,6.9,0.7,14.7,7.7,17.4l35.5,13.8c6.9,2.7,14.7-0.7,17.4-7.7
			C473.1,256.3,469.7,248.5,462.8,245.8z"/>
	</g>
</g>
<g>
	<g>
		<path d="M397.8,98c-6.9-2.7-14.7,0.7-17.4,7.7l-13.8,35.5c-2.7,6.9,0.7,14.7,7.7,17.4c6.9,2.7,14.7-0.7,17.4-7.7l13.8-35.5
			C408.1,108.5,404.7,100.7,397.8,98z"/>
	</g>
</g>
<g>
	<g>
		<path d="M256.5,67.7c-18.5,8.1-27.9,28.6-22.7,47.5l-6.3,16.2c-11,28.2-34.6,52.5-63.3,65.1L90.3,229c-16.1,7.1-25.2,23.4-24,39.9
			l-2.1,0.9c-27.2,11.9-39.6,43.8-27.6,70.9c11.9,27.2,43.8,39.6,70.9,27.6l2.1-0.9c8.3,8.8,20.3,13.5,32.4,12.6l28,63.7
			c9,20.4,32.8,29.7,53.2,20.7s29.7-32.8,20.7-53.2l-27.1-61.6l12.3-5.4c28.7-12.6,62.6-13.6,90.8-2.6l16.2,6.3
			c10.5,16.6,31.9,23.5,50.4,15.4c20.4-9,29.7-32.8,20.7-53.2L309.7,88.4C300.7,68,276.8,58.7,256.5,67.7z M96.6,343.7
			c-13.6,6-29.5-0.2-35.5-13.8c-6-13.6,0.2-29.5,13.8-35.5L96.6,343.7z M219.2,422.1c3,6.8-0.1,14.7-6.9,17.7
			c-6.8,3-14.7-0.1-17.7-6.9l-27.1-61.6l24.6-10.8L219.2,422.1z M206,325l-61.6,27.1c-6.8,3-14.7-0.1-17.7-6.9l-32.5-73.9
			c-3-6.8,0.1-14.7,6.9-17.7l61.6-27.1L206,325z M320.3,313.3c-28.7-8.9-60.4-8.3-89.6,1.5L187,215.1c26.9-14.9,48.8-37.8,61.7-65
			L320.3,313.3z M382.5,320.9c3,6.8-0.1,14.7-6.9,17.7l0,0c-6.8,3-14.7-0.1-17.7-6.9L260.4,110c-3-6.8,0.1-14.7,6.9-17.7
			s14.7,0.1,17.7,6.9L382.5,320.9z"/>
	</g>
</g>
</svg>
