<?xml version="1.0" encoding="utf-8"?>
<!-- Generator: Adobe Illustrator 21.0.0, SVG Export Plug-In . SVG Version: 6.00 Build 0)  -->
<svg version="1.1" id="Capa_1" xmlns="http://www.w3.org/2000/svg" xmlns:xlink="http://www.w3.org/1999/xlink" x="0px" y="0px"
	 viewBox="0 0 475.1 475.1" style="enable-background:new 0 0 475.1 475.1;" xml:space="preserve">
<g>
	<path d="M417.9,198.8c0-5.3-4-8.7-12.1-10L296.9,173l-48.8-98.7c-2.7-5.9-6.3-8.9-10.6-8.9c-4.3,0-7.9,3-10.6,8.9L178.1,173
		L69.3,188.9c-8.1,1.3-12.1,4.6-12.1,10c0,3,1.8,6.5,5.4,10.4l78.9,76.8l-18.6,108.4c-0.3,2-0.4,3.5-0.4,4.3c0,3,0.8,5.6,2.3,7.7
		c1.5,2.1,3.8,3.1,6.8,3.1c2.6,0,5.5-0.9,8.7-2.6l97.3-51.2l97.4,51.2c3,1.7,5.9,2.6,8.7,2.6c5.9,0,8.9-3.6,8.9-10.8
		c0-1.9-0.1-3.3-0.2-4.3L333.6,286l78.7-76.8C416,205.5,417.9,202,417.9,198.8z M303.7,276.2l15.6,91.3l-81.7-43.2l-82,43.2
		l15.8-91.3l-66.3-64.4l91.5-13.4l41-82.8l41,82.8l91.5,13.4L303.7,276.2z"/>
</g>
</svg>
