<?xml version="1.0" encoding="UTF-8"?>
<svg viewBox="0 0 661.418487769 496.06298" xmlns="http://www.w3.org/2000/svg">
 <path d="m0-7.2e-5h661.43v496.06h-661.43z" fill="#ff0" fill-rule="evenodd"/>
 <path d="m281.58 278.47c-0.254 0-43.164 19.805-43.164 19.805l41.133-28.692-2.539-10.664-246.8 91.153 0.0876 105.82 13.231 0.053 251-168.08-12.949-9.395z" fill="#c51829" fill-rule="evenodd"/>
 <path d="m276.49 250.81-52.425 8.618 57.093-16.518-4.729-10.811-246.08 7e-3 -0.1487 117.96 249.52-92.08-3.231-7.181z" fill="#21319c" fill-rule="evenodd"/>
 <path d="m280.44 224.96-44.885-11.131 53.143 0.718-4.668-8.618-253.68-66.531 0.0151 92.744h252.59l-2.513-7.182z" fill="#c51829" fill-rule="evenodd"/>
 <path d="m244.17 173.25 56.016 21.186 0.359-9.695-243.91-147.54-26.315-0.0391 0.015 102.26 264.47 70.098-6.603-9.031-44.027-27.236z" fill="#21319c" fill-rule="evenodd"/>
 <path d="m267.51 144.17c0.359 0 44.525 33.753 44.525 33.753l14.441-2.223-4.348-4.958-122.08-133.61-143.67 0.0316 251.56 152.16-2.716-8.891-37.703-36.267z" fill="#c51829" fill-rule="evenodd"/>
 <path d="m327.84 168.94-11.85-50.988 20.468 49.193s4.308 6.104 4.668 5.745 2.154-6.104 2.154-6.104l0.718-129.63h-143.99l128.52 140.63-0.686-8.852z" fill="#21319c" fill-rule="evenodd"/>
 <path d="m408.13 273.51c0.254 0 45.146 22.083 45.443 22.083l-43.214-28.791 2.836-7.89 248.28 91.351v105.76l-24.091-0.143-241.71-168.02 12.455-14.348z" fill="#21319c" fill-rule="evenodd"/>
 <path d="m413.72 250.81 53.615 3.467-56.797-13.249 3.243-8.929 247.66 7e-3 0.05 118.36-251-92.476 3.231-7.181z" fill="#c51829" fill-rule="evenodd"/>
 <path d="m409.76 224.96 53.702-12.419-61.961 3.987 4.669-10.599 255.26-66.828 0.084 93.14-254.27-0.099 2.513-7.182z" fill="#21319c" fill-rule="evenodd"/>
 <path d="m446.03 173.25-56.018 21.186-0.359-9.695 243.92-147.54 27.801-0.0391 0.282 102.06-266.25 70.296 4.821-11.408 45.811-24.859z" fill="#c51829" fill-rule="evenodd"/>
 <path d="m419.23 142.98c-0.359 0-41.953 33.654-41.259 34.15l-14.244-1.431 4.348-4.958 122.09-133.61 143.67 0.0316-251.56 152.16 2.716-8.891 34.239-37.456z" fill="#21319c" fill-rule="evenodd"/>
 <path d="m360.78 169.84 10.662-51.88-17.696 49.193s-4.308 6.104-4.668 5.745-5.128-3.33-5.822-5.212l0.87-130.62 146.07 0.099-128.52 140.63-0.899-7.96z" fill="#c51829" fill-rule="evenodd"/>
 <path transform="matrix(1.1412 0 0 1.2909 -40.47 -55.298)" d="m398.57 233.22a61.043 61.043 0 1 0 -122.09 0 61.043 61.043 0 1 0 122.09 -1.5e-4l-61.043 1.5e-4z" fill="#ff0" fill-rule="evenodd"/>
 <path d="m43.403 455.92 594.14 0.01-291.77-212.46-302.37 212.44z" fill="#fff" fill-rule="evenodd"/>
 <path transform="matrix(.96154 0 0 .96154 14.136 15.248)" d="m360.97 413.54a18.658 18.658 0 1 0 -37.317 0 18.658 18.658 0 1 0 37.316 3.6e-4l-18.658-3.6e-4z" fill="#ff0" fill-rule="evenodd" stroke="#003e00" stroke-width="1.25"/>
 <g transform="translate(0 -1.5259e-5)" fill-rule="evenodd">
  <path transform="translate(-.17429,-.33479)" d="m356.85 413.21a13.399 13.399 0 1 0 -26.798 0 13.399 13.399 0 1 0 26.799 4.5e-4l-13.399-4.5e-4z" fill="#c51829"/>
  <path d="m345.51,399.673c-3.346.425-7.075,1.046-7.463,6.305-.115,1.972.459,5.808 5.718,7.124 5.054,1.729 6.506,6.932 3.767,10.473-1.282,2.01-3.319,2.566-4.846,2.708-4.91-.159-9.159-3.039-11.054-6.732-2.471-4.248-2.523-10.129 1.221-15.282 2.132-2.324 6.065-5.568 12.657-4.596z" fill="#3d5897"/>
 </g>
 <path d="m276.499,338.63c-20.157,15.813-6.847,40.696 20.852,35.553 0,0-3.649,11.572-3.858,11.677-.209.104-5.317.313-5.317.313s.208-6.673.104-6.569-7.403,6.464-7.507,6.569c-.104.104-5.526.729-5.734.729s-1.981-2.919-1.981-2.919l-5.526.626c1.529-2.676 3.58-4.831 4.588-8.028-5.422,1.912-9.592,8.201-14.388,12.302l-1.981-4.17-3.754-1.668 6.256-5.109-6.256.417 1.564-5.839-10.009,5.943-7.194-1.564c0,0 7.611-11.051 7.403-11.051s-12.928,3.128-12.928,3.128l7.193-11.573-11.468,3.545 18.35-21.478 13.554-2.398c16.416-.454 16.179,1.283 21.713-4.94 4.075-.538.862,3.659 2.365,3.789s-7.544,2.585-6.041,2.715z" fill="#003f00" fill-rule="evenodd" stroke="#003000" stroke-linejoin="round" stroke-width="1.25"/>
 <path d="m219.224,381.596c3.433-12.359 2.893-17.067-11.476-20.893-2.796.295-12.212.735-14.272,3.826-11.623,1.03-16.92,12.359-20.01,12.8-8.051,1.208-16.577,7.602-21.186,8.828 4.708,4.12 8.828,4.414 13.536,4.561-2.06,3.188-6.033,4.463-7.063,7.798 11.918.196 29.279-2.698 33.546-2.943l26.925-13.977z" fill="#003f00" fill-rule="evenodd" stroke="#003000" stroke-linejoin="round" stroke-width="1.25"/>
 <path d="m245.968,377.299c0,0 .355,4.306-1.257,5.379-1.611.715-27.267.72-27.267.72" fill="none" stroke="#000" stroke-width="1.25"/>
 <path d="m196.447,403.948c-.194,0-3.103-7.175-3.103-7.175-.582.064-3.296,2.844-3.878,2.909-.517-.711-1.228-2.004-1.745-2.715 0,0-2.715,3.49-2.909,3.102s-1.552,7.951-1.746,7.758-2.133-6.4-2.327-6.4-1.357,4.072-1.357,4.072c-.711.065-1.422.129-2.133.194 .065,2.198.129,4.396.194,6.594l-4.073-5.818c-.388,2.004-.775,4.008-1.163,6.012 .258,4.008.517,8.015.775,12.023l.582,2.521c10.213-5.947 17.13-13.639 22.883-23.077z" fill="#003f00" fill-rule="evenodd" stroke="#003000" stroke-width="1.25"/>
 <path d="m244.35 426.06c-3.038-2.327-6.464-3.685-9.696-3.491l-2.909 2.133-4.073 1.164s2.909 3.102 2.521 3.296-9.114 1.358-9.114 1.552 4.654 2.327 4.654 2.327l-1.745 1.164 5.818 2.327s-5.43 1.163-5.624 1.357 9.696 6.012 10.472 5.818c0.776 0.582 11.248 1.745 11.248 1.551 0.776-4.654-0.388-10.472-0.388-10.472-2.327-1.745-2.521-5.817-1.164-8.726z" fill="#003f00" fill-rule="evenodd" stroke="#003000" stroke-width="1.25"/>
 <path d="m265.098,424.892c2.715-4.072 24.24,1.552 24.24,1.552 10.666,1.745 29.864-3.297 31.416,0 .969,4.719-10.666,9.438-17.453,10.666 0,0-5.818,5.818-5.818,5.042s2.909-7.757 1.358-7.369-7.37,3.296-7.951,3.878c-1.94.582-6.206,3.296-6.4,3.102-.97-1.357.97-4.847.97-4.847-8.339-.517-21.138-6.659-20.362-12.024z" fill="#003f00" fill-rule="evenodd" stroke="#003000" stroke-width="1.25"/>
 <path d="m297.87 375.25c7.175 2.133 4.654 22.883 1.163 36.07" fill="none" stroke="#000" stroke-width="1.25"/>
 <path d="m273.436,395.221c13.575-2.327 25.404,15.708 25.404,15.902 7.757,10.084 19.587.388 19.587.388 2.198-.065 4.395-.129 6.593-.194l.194,2.327-5.624,1.164 5.237-.582 .387,2.715-5.042,2.133 5.042-1.551 1.358,2.715-5.236,2.133 5.624-1.164 2.521,3.491-8.339,2.327" fill="none" stroke="#000" stroke-linecap="round" stroke-linejoin="round" stroke-width="1.25"/>
 <path d="m249.583,409.378c-6.981,8.016-12.799,11.377-22.689,12.412-11.377,1.745-19.845,1.745-31.61,1.163-.969,4.784-2.521,6.27-6.981,7.175-1.034,1.68-2.263,4.137-3.297,5.818-.129,2.715-.841,4.848-.97,7.563l-2.715-3.49c0,2.197.582,5.559 0,6.399-1.358.064-1.551-3.944-2.327-6.012-.517,2.779-.453,6.916-1.552,8.339-1.034-.776-2.65-5.43-3.102-8.145-.905,2.392-.065,4.784-.97,7.176-4.138-6.852-3.28-14.82-.824-21.672" fill="none" stroke="#000" stroke-linejoin="round" stroke-width="1.25"/>
 <path d="m243.896,426.149c7.205.89 14.41.712 20.814-.533" fill="none" stroke="#000" stroke-width="1.25"/>
 <path d="m266.044,429.352c-2.046,2.046-4.358,3.825-6.938,5.07 .089,1.957.178,4.18.267,6.137 2.847-.267 4.359,1.068 6.138,3.202-.534,2.224-1.067,4.448-1.601,6.672l-1.602-4.27c-.534,1.957-.533,5.248-1.868,6.138-1.867-.534-1.334-4.003-2.134-5.871-.979,1.957-1.957,4.98-2.936,5.87-1.334-1.245-.533-3.557-.8-5.336l-3.469,4.536-1.601-1.067-2.402,2.134c-.623-2.135-1.245-4.269-1.868-6.404" fill="none" stroke="#000" stroke-linejoin="round" stroke-width="1.25"/>
 <path d="m337.227,348.548c-1.192,1.073-2.205,2.145-3.755,2.86-.536,3.04-.358,10.729 1.967,22.352 .536,2.682-1.967.535-3.755-.537-.656,3.993-1.669,9.059-2.325,13.052-1.013-.715-1.669-1.966-2.682-2.681 0,0-1.43,1.43-1.251,1.073s-.358-7.153-.358-7.153l-.357,13.947h-2.861c0,0 0,4.292-.358,4.649s-3.755-.894-3.755-.894c.06,1.967.119,3.934.179,5.901 0,0-3.755-.537-3.934-.358s-3.04,4.47-3.04,4.47l1.073-10.192c0,0-2.324.894-2.503.716s0-6.974 0-6.974c4.351-8.583 9.417-15.735 13.411-24.854 .178-2.384 1.072-5.126 1.251-7.51-1.073-4.47 3.755-9.834 7.331-8.94 3.755-.536 5.722,1.252 5.722,1.073z" fill="#003f00" fill-rule="evenodd" stroke="#003000" stroke-linejoin="round" stroke-width="1.25"/>
 <path d="m309.69 389.14c-1.55 5.126-4.709 8.463-7.868 11.622" fill="none" stroke="#000" stroke-width="1.25"/>
 <path d="m298.07,363.389c5.901-3.219 10.908-7.688 15.02-12.874 2.622-1.49 3.099-5.842 3.576-10.908 2.444-1.013 4.887-5.602 5.722-5.185 1.729,1.43 2.027,5.364 3.04,8.046 .417-2.086-.239-5.602 1.251-6.258 1.431,1.192 1.431,4.709 2.146,6.795 .894-1.848 1.073-4.053 2.861-4.828 1.609,1.073 1.251,5.722 1.251,5.543s1.789-4.47 3.577-4.47c1.311,2.92 2.265,6.02 1.788,8.761" fill="none" stroke="#000" stroke-linejoin="round" stroke-width="1.25"/>
 <path d="m296.82 373.22c2.682-3.219 2.503-8.046 1.788-10.728-2.98-1.788-6.139-1.789-9.477-1.61" fill="none" stroke="#000" stroke-width="1.25"/>
 <path d="m283.944,364.283c0,0-2.86,2.682-1.966,4.112s11.086,3.398 13.768,2.146 2.861-6.795.894-6.795-12.696.894-12.696.537z" fill="#6b0000" fill-rule="evenodd" stroke="#000" stroke-width="1.25"/>
 <path d="m288.77 367.14 8.404 0.536" fill="none" stroke="#000" stroke-linecap="round" stroke-width="1.25"/>
 <path d="m283.945,363.21c3.338-2.563 6.317-4.053 10.191-5.186 6.258-.119 5.007-21.516.537-19.669-2.205-.119-2.265,1.55-3.397,2.325-2.563-2.562-5.126-3.695-7.689-4.47" fill="none" stroke="#000" stroke-linejoin="round" stroke-width="1.25"/>
 <path d="m289.917,354.468c1.364.077 1.543-10.44-.473-10.44-3.226,2.419-.591,10.625.473,10.44z" fill="none" stroke="#000" stroke-width="1.25"/>
 <path d="m285.071,352.653c.164,1.476-1.454,4.46-3.621,4.701l-.807,4.436c-1.747-.135-3.495-.269-5.242-.404-1.075-1.882-1.327-3.626-2.402-5.508 .403-1.478-.017-3.094.386-4.572 1.613-.269 3.363.285 4.976.016 2.283-.837 5.936-.85 6.71,1.331z" fill="#003f00" fill-rule="evenodd" stroke="#003000" stroke-width="1.25"/>
 <path d="m279.434,345.661c-1.745,1.089-3.764,1.492-5.646,1.209 .411-2.016.411-4.032 0-6.048 1.61-.677 3.495-.807 5.242-1.21 1.613.135 3.226.269 4.839.404 1.224.801 1.624,1.601 1.613,3.225-1.467,1.767-3.621,2.299-6.048,2.42z" fill="#003f00" fill-rule="evenodd" stroke="#003000" stroke-width="1.25"/>
 <path d="m246.23 380.65s2.696 5.007-1.027 7.189-5.905-4.75-5.905-4.75 3.466 1.028 5.264-0.257c1.669-2.182 1.797-1.925 1.668-2.182z" fill-rule="evenodd"/>
 <path d="m225.949,383.473c0,0 .514,3.467 1.669,4.494s6.676,1.284 7.832.385 2.31-4.879.898-5.007-10.399.128-10.399.128z" fill-rule="evenodd"/>
 <path d="m221.07 383.6s2.696 4.75-0.257 6.676-6.419-1.669-6.419-1.669l-7.318-0.129 10.143-5.007 3.851 0.129z" fill-rule="evenodd"/>
 <path d="m212.598,422.886c0-.128-1.412-6.419 1.155-6.676s7.831-2.567 8.345.899-.514,5.264-.514,5.264l-8.986.513z" fill-rule="evenodd"/>
 <path d="m201.429,423.271c0,0 1.284-4.236.128-5.905s-7.703-.899-8.216.77-1.541,4.879-1.156,7.446c.385,2.568 1.284,2.054 1.284,2.054l1.669-4.75 6.291.385z" fill-rule="evenodd"/>
 <path d="m190.13 428.79s1.027-5.906-3.338-5.906-2.952 6.291-2.952 6.291 1.412 2.824 3.081 2.054 3.338-2.054 3.209-2.439z" fill-rule="evenodd"/>
 <path d="m180.89 432.39 0.513 7.318" fill="none" stroke="#000" stroke-linecap="round" stroke-width="1.25"/>
 <path d="m177.04 432.64 1.797 7.703" fill="none" stroke="#000" stroke-linecap="round" stroke-width="1.25"/>
 <path d="m175.11 432.13s-1.926 5.006-0.771 8.344" fill="none" stroke="#000" stroke-linecap="round" stroke-width="1.25"/>
 <path d="m316.18 413.57s1.081 5.239-1.996 7.983-4.407-2.328-3.825-3.659 1.58-2.911 1.913-2.911 4.075-1.413 3.908-1.413z" fill-rule="evenodd"/>
 <path d="m307.94 416.06s0.167 10.145-6.32 6.486 0.832-7.817 0.832-7.817l5.488 1.331z" fill-rule="evenodd"/>
 <path d="m298.55 410.99s0.25 6.154-6.07 5.239c-6.321-0.915 0.083-11.393 2.245-9.896s3.908 4.906 3.825 4.657z" fill-rule="evenodd"/>
 <path d="m260.875,432.861c-.084-.083-.25-4.075-8.982-2.661s3.493,7.734 6.736,6.736c-.749-3.659 2.412-3.742 2.246-4.075z" fill-rule="evenodd"/>
 <path d="m254.887,440.262c.166.167 6.985,5.572 6.985,5.572" fill="none" stroke="#000" stroke-linecap="round" stroke-width="1.25"/>
 <path d="m255.55 443.76 2.246 2.329" fill="none" stroke="#000" stroke-linecap="round" stroke-width="1.25"/>
 <path d="m249.32 442.51 4.74 4.158" fill="none" stroke="#000" stroke-linecap="round" stroke-width="1.25"/>
 <path d="m308.44 355.94s7.069 3.659 2.163 8.731-5.988-6.07-5.988-6.07l3.825-2.661z" fill-rule="evenodd"/>
 <path d="m311.44 352.78s1.331 6.154 7.152 2.994-1.414-7.817-3.576-7.069c-2.661 1.58-3.576 4.242-3.576 4.075z" fill-rule="evenodd"/>
 <path d="m316.343,345.21c.748.998 1.995,5.405 6.569,2.245s-2.245-10.395-3.825-9.231c-1.58,1.165-2.412,1.081-2.744,6.986z" fill-rule="evenodd"/>
 <g transform="matrix(-1 0 0 1 687.27 -1.5259e-5)">
  <path d="m276.499,338.63c-20.157,15.813-6.847,40.696 20.852,35.553 0,0-3.649,11.572-3.858,11.677-.209.104-5.317.313-5.317.313s.208-6.673.104-6.569-7.403,6.464-7.507,6.569c-.104.104-5.526.729-5.734.729s-1.981-2.919-1.981-2.919l-5.526.626c1.529-2.676 3.58-4.831 4.588-8.028-5.422,1.912-9.592,8.201-14.388,12.302l-1.981-4.17-3.754-1.668 6.256-5.109-6.256.417 1.564-5.839-10.009,5.943-7.194-1.564c0,0 7.611-11.051 7.403-11.051s-12.928,3.128-12.928,3.128l7.193-11.573-11.468,3.545 18.35-21.478 13.554-2.398c16.416-.454 16.179,1.283 21.713-4.94 4.075-.538.862,3.659 2.365,3.789s-7.544,2.585-6.041,2.715z" fill="#003f00" fill-rule="evenodd" stroke="#003000" stroke-linejoin="round" stroke-width="1.25"/>
  <path d="m219.224,381.596c3.433-12.359 2.893-17.067-11.476-20.893-2.796.295-12.212.735-14.272,3.826-11.623,1.03-16.92,12.359-20.01,12.8-8.051,1.208-16.577,7.602-21.186,8.828 4.708,4.12 8.828,4.414 13.536,4.561-2.06,3.188-6.033,4.463-7.063,7.798 11.918.196 29.279-2.698 33.546-2.943l26.925-13.977z" fill="#003f00" fill-rule="evenodd" stroke="#003000" stroke-linejoin="round" stroke-width="1.25"/>
  <path d="m245.968,377.299c0,0 .355,4.306-1.257,5.379-1.611.715-27.267.72-27.267.72" fill="none" stroke="#000" stroke-width="1.25"/>
  <path d="m196.447,403.948c-.194,0-3.103-7.175-3.103-7.175-.582.064-3.296,2.844-3.878,2.909-.517-.711-1.228-2.004-1.745-2.715 0,0-2.715,3.49-2.909,3.102s-1.552,7.951-1.746,7.758-2.133-6.4-2.327-6.4-1.357,4.072-1.357,4.072c-.711.065-1.422.129-2.133.194 .065,2.198.129,4.396.194,6.594l-4.073-5.818c-.388,2.004-.775,4.008-1.163,6.012 .258,4.008.517,8.015.775,12.023l.582,2.521c10.213-5.947 17.13-13.639 22.883-23.077z" fill="#003f00" fill-rule="evenodd" stroke="#003000" stroke-width="1.25"/>
  <path d="m244.35 426.06c-3.038-2.327-6.464-3.685-9.696-3.491l-2.909 2.133-4.073 1.164s2.909 3.102 2.521 3.296-9.114 1.358-9.114 1.552 4.654 2.327 4.654 2.327l-1.745 1.164 5.818 2.327s-5.43 1.163-5.624 1.357 9.696 6.012 10.472 5.818c0.776 0.582 11.248 1.745 11.248 1.551 0.776-4.654-0.388-10.472-0.388-10.472-2.327-1.745-2.521-5.817-1.164-8.726z" fill="#003f00" fill-rule="evenodd" stroke="#003000" stroke-width="1.25"/>
  <path d="m265.098,424.892c2.715-4.072 24.24,1.552 24.24,1.552 10.666,1.745 29.864-3.297 31.416,0 .969,4.719-10.666,9.438-17.453,10.666 0,0-5.818,5.818-5.818,5.042s2.909-7.757 1.358-7.369-7.37,3.296-7.951,3.878c-1.94.582-6.206,3.296-6.4,3.102-.97-1.357.97-4.847.97-4.847-8.339-.517-21.138-6.659-20.362-12.024z" fill="#003f00" fill-rule="evenodd" stroke="#003000" stroke-width="1.25"/>
  <path d="m297.87 375.25c7.175 2.133 4.654 22.883 1.163 36.07" fill="none" stroke="#000" stroke-width="1.25"/>
  <path d="m273.436,395.221c13.575-2.327 25.404,15.708 25.404,15.902 7.757,10.084 19.587.388 19.587.388 2.198-.065 4.395-.129 6.593-.194l.194,2.327-5.624,1.164 5.237-.582 .387,2.715-5.042,2.133 5.042-1.551 1.358,2.715-5.236,2.133 5.624-1.164 2.521,3.491-8.339,2.327" fill="none" stroke="#000" stroke-linecap="round" stroke-linejoin="round" stroke-width="1.25"/>
  <path d="m249.583,409.378c-6.981,8.016-12.799,11.377-22.689,12.412-11.377,1.745-19.845,1.745-31.61,1.163-.969,4.784-2.521,6.27-6.981,7.175-1.034,1.68-2.263,4.137-3.297,5.818-.129,2.715-.841,4.848-.97,7.563l-2.715-3.49c0,2.197.582,5.559 0,6.399-1.358.064-1.551-3.944-2.327-6.012-.517,2.779-.453,6.916-1.552,8.339-1.034-.776-2.65-5.43-3.102-8.145-.905,2.392-.065,4.784-.97,7.176-4.138-6.852-3.28-14.82-.824-21.672" fill="none" stroke="#000" stroke-linejoin="round" stroke-width="1.25"/>
  <path d="m243.896,426.149c7.205.89 14.41.712 20.814-.533" fill="none" stroke="#000" stroke-width="1.25"/>
  <path d="m266.044,429.352c-2.046,2.046-4.358,3.825-6.938,5.07 .089,1.957.178,4.18.267,6.137 2.847-.267 4.359,1.068 6.138,3.202-.534,2.224-1.067,4.448-1.601,6.672l-1.602-4.27c-.534,1.957-.533,5.248-1.868,6.138-1.867-.534-1.334-4.003-2.134-5.871-.979,1.957-1.957,4.98-2.936,5.87-1.334-1.245-.533-3.557-.8-5.336l-3.469,4.536-1.601-1.067-2.402,2.134c-.623-2.135-1.245-4.269-1.868-6.404" fill="none" stroke="#000" stroke-linejoin="round" stroke-width="1.25"/>
  <path d="m337.227,348.548c-1.192,1.073-2.205,2.145-3.755,2.86-.536,3.04-.358,10.729 1.967,22.352 .536,2.682-1.967.535-3.755-.537-.656,3.993-1.669,9.059-2.325,13.052-1.013-.715-1.669-1.966-2.682-2.681 0,0-1.43,1.43-1.251,1.073s-.358-7.153-.358-7.153l-.357,13.947h-2.861c0,0 0,4.292-.358,4.649s-3.755-.894-3.755-.894c.06,1.967.119,3.934.179,5.901 0,0-3.755-.537-3.934-.358s-3.04,4.47-3.04,4.47l1.073-10.192c0,0-2.324.894-2.503.716s0-6.974 0-6.974c4.351-8.583 9.417-15.735 13.411-24.854 .178-2.384 1.072-5.126 1.251-7.51-1.073-4.47 3.755-9.834 7.331-8.94 3.755-.536 5.722,1.252 5.722,1.073z" fill="#003f00" fill-rule="evenodd" stroke="#003000" stroke-linejoin="round" stroke-width="1.25"/>
  <path d="m309.69 389.14c-1.55 5.126-4.709 8.463-7.868 11.622" fill="none" stroke="#000" stroke-width="1.25"/>
  <path d="m298.07,363.389c5.901-3.219 10.908-7.688 15.02-12.874 2.622-1.49 3.099-5.842 3.576-10.908 2.444-1.013 4.887-5.602 5.722-5.185 1.729,1.43 2.027,5.364 3.04,8.046 .417-2.086-.239-5.602 1.251-6.258 1.431,1.192 1.431,4.709 2.146,6.795 .894-1.848 1.073-4.053 2.861-4.828 1.609,1.073 1.251,5.722 1.251,5.543s1.789-4.47 3.577-4.47c1.311,2.92 2.265,6.02 1.788,8.761" fill="none" stroke="#000" stroke-linejoin="round" stroke-width="1.25"/>
  <path d="m296.82 373.22c2.682-3.219 2.503-8.046 1.788-10.728-2.98-1.788-6.139-1.789-9.477-1.61" fill="none" stroke="#000" stroke-width="1.25"/>
  <path d="m283.944,364.283c0,0-2.86,2.682-1.966,4.112s11.086,3.398 13.768,2.146 2.861-6.795.894-6.795-12.696.894-12.696.537z" fill="#6b0000" fill-rule="evenodd" stroke="#000" stroke-width="1.25"/>
  <path d="m288.77 367.14 8.404 0.536" fill="none" stroke="#000" stroke-linecap="round" stroke-width="1.25"/>
  <path d="m283.945,363.21c3.338-2.563 6.317-4.053 10.191-5.186 6.258-.119 5.007-21.516.537-19.669-2.205-.119-2.265,1.55-3.397,2.325-2.563-2.562-5.126-3.695-7.689-4.47" fill="none" stroke="#000" stroke-linejoin="round" stroke-width="1.25"/>
  <path d="m289.917,354.468c1.364.077 1.543-10.44-.473-10.44-3.226,2.419-.591,10.625.473,10.44z" fill="none" stroke="#000" stroke-width="1.25"/>
  <path d="m285.071,352.653c.164,1.476-1.454,4.46-3.621,4.701l-.807,4.436c-1.747-.135-3.495-.269-5.242-.404-1.075-1.882-1.327-3.626-2.402-5.508 .403-1.478-.017-3.094.386-4.572 1.613-.269 3.363.285 4.976.016 2.283-.837 5.936-.85 6.71,1.331z" fill="#003f00" fill-rule="evenodd" stroke="#003000" stroke-width="1.25"/>
  <path d="m279.434,345.661c-1.745,1.089-3.764,1.492-5.646,1.209 .411-2.016.411-4.032 0-6.048 1.61-.677 3.495-.807 5.242-1.21 1.613.135 3.226.269 4.839.404 1.224.801 1.624,1.601 1.613,3.225-1.467,1.767-3.621,2.299-6.048,2.42z" fill="#003f00" fill-rule="evenodd" stroke="#003000" stroke-width="1.25"/>
  <path d="m246.23 380.65s2.696 5.007-1.027 7.189-5.905-4.75-5.905-4.75 3.466 1.028 5.264-0.257c1.669-2.182 1.797-1.925 1.668-2.182z" fill-rule="evenodd"/>
  <path d="m225.949,383.473c0,0 .514,3.467 1.669,4.494s6.676,1.284 7.832.385 2.31-4.879.898-5.007-10.399.128-10.399.128z" fill-rule="evenodd"/>
  <path d="m221.07 383.6s2.696 4.75-0.257 6.676-6.419-1.669-6.419-1.669l-7.318-0.129 10.143-5.007 3.851 0.129z" fill-rule="evenodd"/>
  <path d="m212.598,422.886c0-.128-1.412-6.419 1.155-6.676s7.831-2.567 8.345.899-.514,5.264-.514,5.264l-8.986.513z" fill-rule="evenodd"/>
  <path d="m201.429,423.271c0,0 1.284-4.236.128-5.905s-7.703-.899-8.216.77-1.541,4.879-1.156,7.446c.385,2.568 1.284,2.054 1.284,2.054l1.669-4.75 6.291.385z" fill-rule="evenodd"/>
  <path d="m190.13 428.79s1.027-5.906-3.338-5.906-2.952 6.291-2.952 6.291 1.412 2.824 3.081 2.054 3.338-2.054 3.209-2.439z" fill-rule="evenodd"/>
  <path d="m180.89 432.39 0.513 7.318" fill="none" stroke="#000" stroke-linecap="round" stroke-width="1.25"/>
  <path d="m177.04 432.64 1.797 7.703" fill="none" stroke="#000" stroke-linecap="round" stroke-width="1.25"/>
  <path d="m175.11 432.13s-1.926 5.006-0.771 8.344" fill="none" stroke="#000" stroke-linecap="round" stroke-width="1.25"/>
  <path d="m316.18 413.57s1.081 5.239-1.996 7.983-4.407-2.328-3.825-3.659 1.58-2.911 1.913-2.911 4.075-1.413 3.908-1.413z" fill-rule="evenodd"/>
  <path d="m307.94 416.06s0.167 10.145-6.32 6.486 0.832-7.817 0.832-7.817l5.488 1.331z" fill-rule="evenodd"/>
  <path d="m298.55 410.99s0.25 6.154-6.07 5.239c-6.321-0.915 0.083-11.393 2.245-9.896s3.908 4.906 3.825 4.657z" fill-rule="evenodd"/>
  <path d="m260.875,432.861c-.084-.083-.25-4.075-8.982-2.661s3.493,7.734 6.736,6.736c-.749-3.659 2.412-3.742 2.246-4.075z" fill-rule="evenodd"/>
  <path d="m254.887,440.262c.166.167 6.985,5.572 6.985,5.572" fill="none" stroke="#000" stroke-linecap="round" stroke-width="1.25"/>
  <path d="m255.55 443.76 2.246 2.329" fill="none" stroke="#000" stroke-linecap="round" stroke-width="1.25"/>
  <path d="m249.32 442.51 4.74 4.158" fill="none" stroke="#000" stroke-linecap="round" stroke-width="1.25"/>
  <path d="m308.44 355.94s7.069 3.659 2.163 8.731-5.988-6.07-5.988-6.07l3.825-2.661z" fill-rule="evenodd"/>
  <path d="m311.44 352.78s1.331 6.154 7.152 2.994-1.414-7.817-3.576-7.069c-2.661 1.58-3.576 4.242-3.576 4.075z" fill-rule="evenodd"/>
  <path d="m316.343,345.21c.748.998 1.995,5.405 6.569,2.245s-2.245-10.395-3.825-9.231c-1.58,1.165-2.412,1.081-2.744,6.986z" fill-rule="evenodd"/>
 </g>
 <path transform="translate(.80605,-.11514)" d="m342.67 392.66a1.9575 1.9575 0 1 0 -3.915 0 1.9575 1.9575 0 1 0 3.9146 4.6e-4l-1.9571-4.6e-4z" fill="#ff0" fill-rule="evenodd" stroke="#000" stroke-width="1.25"/>
 <path d="m344.867,317.786c0,0 23.189,4.638 28.197-25.044-3.525,3.71-9.275,8.904-9.275,8.904s5.009-16.881.185-22.632c-2.782,5.565-4.452,9.832-4.637,8.905s-2.412-10.389-3.711-14.285c-1.298,2.041-2.226,7.05-2.411,6.864s-4.453-17.809-6.122-19.293c-1.67,7.05-3.339,17.995-3.339,17.995l-2.227-10.389-4.266,15.954c-.618-2.845-1.608-4.947-1.855-8.534 0,0-4.081,7.235-5.38,11.317-.371-.186-2.783-6.864-2.783-6.864-1.484,3.957-1.855,10.141-.927,15.582-2.969-.556-5.195-7.791-5.38-7.605-.186.185-10.018,30.609 23.931,29.125z" fill="#6b0000" fill-rule="evenodd" stroke="#000" stroke-width="1.25"/>
 <path d="m340.97 317.23c-2.226-1.484-16.325-5.936-9.09-14.841 9.647-4.081 9.09 15.027 9.09 14.841z" fill="#f00" fill-rule="evenodd"/>
 <path d="m346.907,317.415c.186-.186-.556-17.253 9.09-13.728 7.606,6.493-8.904,14.099-9.09,13.728z" fill="#00f" fill-rule="evenodd"/>
 <path d="m346.72 317.04-5.565-0.185s-4.823-22.447 3.71-21.891c7.05 2.969 2.041 22.447 1.855 22.076z" fill="#fff" fill-rule="evenodd"/>
 <path d="m330.03 325.02-5.937 8.349c14.346 9.089 27.58 7.605 40.627 4.266-1.67-3.772-1.854-5.69-3.524-9.461-6.431 2.102-20.468 2.72-31.166-3.154z" fill="#ff0" fill-rule="evenodd" stroke="#000" stroke-width="1.25"/>
 <path d="m329.84,325.392 4.452-7.791c0,0 16.511.742 19.479.371 1.484,1.67 6.307,8.347 6.864,9.831-1.855.557-16.881,5.009-30.795-2.411z" fill-rule="evenodd" stroke="#000" stroke-width="1.25"/>
 <path transform="translate(5.7573 -.23027)" d="m342.67 392.66a1.9575 1.9575 0 1 0 -3.915 0 1.9575 1.9575 0 1 0 3.9146 4.6e-4l-1.9571-4.6e-4z" fill="#ff0" fill-rule="evenodd" stroke="#000" stroke-width="1.25"/>
 <path transform="translate(3.3392 -4.4907)" d="m342.67 392.66a1.9575 1.9575 0 1 0 -3.915 0 1.9575 1.9575 0 1 0 3.9146 4.6e-4l-1.9571-4.6e-4z" fill="#ff0" fill-rule="evenodd" stroke="#000" stroke-width="1.25"/>
 <path transform="matrix(1 -2.4492e-16 2.4492e-16 1 4.3755 40.646)" d="m342.67 392.66a1.9575 1.9575 0 1 0 -3.915 0 1.9575 1.9575 0 1 0 3.9146 4.6e-4l-1.9571-4.6e-4z" fill="#ff0" fill-rule="evenodd" stroke="#000" stroke-width="1.25"/>
 <path transform="matrix(1 -2.4492e-16 2.4492e-16 1 -.5758 40.762)" d="m342.67 392.66a1.9575 1.9575 0 1 0 -3.915 0 1.9575 1.9575 0 1 0 3.9146 4.6e-4l-1.9571-4.6e-4z" fill="#ff0" fill-rule="evenodd" stroke="#000" stroke-width="1.25"/>
 <path transform="matrix(1 -2.4492e-16 2.4492e-16 1 1.8422 45.022)" d="m342.67 392.66a1.9575 1.9575 0 1 0 -3.915 0 1.9575 1.9575 0 1 0 3.9146 4.6e-4l-1.9571-4.6e-4z" fill="#ff0" fill-rule="evenodd" stroke="#000" stroke-width="1.25"/>
 <path transform="translate(-1.4137 -1.5259e-5)" d="m347.58 327.93a1.0098 2.3225 0 1 0 -2.0196 0 1.0098 2.3225 0 1 0 2.0193 -2.7e-4l-1.0095 2.7e-4z" fill="#fff" fill-rule="evenodd"/>
 <path transform="translate(.20195,.20194)" d="m347.58 327.93a1.0098 2.3225 0 1 0 -2.0196 0 1.0098 2.3225 0 1 0 2.0193 -2.7e-4l-1.0095 2.7e-4z" fill="#fff" fill-rule="evenodd"/>
 <path transform="translate(-3.2314 .20194)" d="m347.58 327.93a1.0098 2.3225 0 1 0 -2.0196 0 1.0098 2.3225 0 1 0 2.0193 -2.7e-4l-1.0095 2.7e-4z" fill="#fff" fill-rule="evenodd"/>
 <path d="m299.89 347.82a1.6175 1.8601 0 1 0 -3.235 0 1.6175 1.8601 0 1 0 3.2352 -4.7e-4l-1.6177 4.7e-4z" fill-rule="evenodd"/>
 <path transform="translate(90.581 -.80881)" d="m299.89 347.82a1.6175 1.8601 0 1 0 -3.235 0 1.6175 1.8601 0 1 0 3.2352 -4.7e-4l-1.6177 4.7e-4z" fill-rule="evenodd"/>
 <path d="m294.98 346.95s-0.599 1.658 0.359 2.67" fill="none" stroke="#000" stroke-linecap="round" stroke-width="1.151"/>
 <path d="m292.73 346.4s-0.575 2.487 0.575 4.051" fill="none" stroke="#000" stroke-linecap="round" stroke-width="1.151"/>
 <path d="m392.04 346.35s0.599 1.658-0.359 2.67" fill="none" stroke="#000" stroke-linecap="round" stroke-width="1.151"/>
 <path d="m394.29 345.8s0.575 2.487-0.575 4.051" fill="none" stroke="#000" stroke-linecap="round" stroke-width="1.151"/>
 <g fill="none" stroke="#002800" stroke-linecap="round">
  <path d="m326.42 356.74s4.568 9.435 4.866 14.698"/>
  <path d="m325.03 364.98s3.178 8.639 3.178 13.605"/>
  <path d="m322.25 369.25s2.383 3.774 2.284 5.859"/>
  <path d="m319.07 375.7s2.88 8.739 2.482 12.91"/>
  <path d="m315.69 381.56s2.284 7.051 1.192 11.222"/>
  <path d="m313.01 386.03s0 5.263-0.695 6.653"/>
  <path d="m240.02 355.54s16.823-11.951 25.284-10.56"/>
  <path d="m247.29 343.59s11.844-3.089 16.624-2.292"/>
  <path d="m246.49 364.3c0.199-0.299 10.256-11.455 16.032-11.554"/>
  <path d="m254.86 370.68s2.789-7.968 8.664-9.86"/>
  <path d="m260.83 376.06s5.774-5.177 6.969-6.87"/>
  <path d="m273.18 374.56 1.295-2.39"/>
  <path d="m279.95 375.96s-5.477 5.278-5.477 6.573"/>
  <path d="m288.717,378.046c0-.099.199-1.693.199-1.693"/>
  <path d="m167.32 390.2s28.992-8.202 35.366-2.326"/>
  <path d="m178.47 377.25s26.544-0.808 28.635 7.259"/>
  <path d="m197.29 366.39c0.199 0 17.616 4.821 14.827 16.374"/>
  <path d="m209.24 363.7c0 0.1 10.176 8.934 4.997 18.196"/>
  <path d="m189.42 402.45s-0.1 2.987 0.697 7.17"/>
  <path d="m183.648,411.211c.597,5.178.996,6.373.996,6.373"/>
  <path d="m178.27 416.29s-1.096 1.892 0.199 5.378"/>
  <path d="m232.75 428.74c8.465 1.892 9.062 1.294 9.062 1.294"/>
  <path d="m229.062,433.32c.398.1 10.258.797 12.747.498"/>
  <path d="m232.75 437.1s9.062 2.489 11.154 1.394"/>
  <path d="m301.96 428.24s-0.1 3.286-2.091 4.979"/>
  <path d="m309.13 428.04s-0.299 3.485-3.785 6.374"/>
  <path d="m286.53 435.81s3.386-2.191 7.171-6.374"/>
  <path d="m284.5 428.47s-0.553 2.49-4.795 5.072"/>
  <path d="m277.12 426.99s0.461 2.305-2.214 4.519"/>
  <path d="m180.04 409.55s-0.117 3.628 0.819 9.54"/>
  <path d="m185.78 405.16s-0.878 4.331 1.112 7.784"/>
  <path d="m162.6 386.14s33.539-6.146 42.085-0.176"/>
  <path d="m187.07 370.1s21.305 7.082 22.71 12.935"/>
  <path d="m278.01 352.49 1.784 4.682"/>
  <path d="m278.68 341.34v3.121"/>
 </g>
 <g transform="matrix(-1 0 0 1 686.37 .44249)" fill="none" stroke="#002800" stroke-linecap="round">
  <path d="m326.42 356.74s4.568 9.435 4.866 14.698"/>
  <path d="m325.03 364.98s3.178 8.639 3.178 13.605"/>
  <path d="m322.25 369.25s2.383 3.774 2.284 5.859"/>
  <path d="m319.07 375.7s2.88 8.739 2.482 12.91"/>
  <path d="m315.69 381.56s2.284 7.051 1.192 11.222"/>
  <path d="m313.01 386.03s0 5.263-0.695 6.653"/>
  <path d="m240.02 355.54s16.823-11.951 25.284-10.56"/>
  <path d="m247.29 343.59s11.844-3.089 16.624-2.292"/>
  <path d="m246.49 364.3c0.199-0.299 10.256-11.455 16.032-11.554"/>
  <path d="m254.86 370.68s2.789-7.968 8.664-9.86"/>
  <path d="m260.83 376.06s5.774-5.177 6.969-6.87"/>
  <path d="m273.18 374.56 1.295-2.39"/>
  <path d="m279.95 375.96s-5.477 5.278-5.477 6.573"/>
  <path d="m288.717,378.046c0-.099.199-1.693.199-1.693"/>
  <path d="m167.32 390.2s28.992-8.202 35.366-2.326"/>
  <path d="m178.47 377.25s26.544-0.808 28.635 7.259"/>
  <path d="m197.29 366.39c0.199 0 17.616 4.821 14.827 16.374"/>
  <path d="m209.24 363.7c0 0.1 10.176 8.934 4.997 18.196"/>
  <path d="m189.42 402.45s-0.1 2.987 0.697 7.17"/>
  <path d="m183.648,411.211c.597,5.178.996,6.373.996,6.373"/>
  <path d="m178.27 416.29s-1.096 1.892 0.199 5.378"/>
  <path d="m232.75 428.74c8.465 1.892 9.062 1.294 9.062 1.294"/>
  <path d="m229.062,433.32c.398.1 10.258.797 12.747.498"/>
  <path d="m232.75 437.1s9.062 2.489 11.154 1.394"/>
  <path d="m301.96 428.24s-0.1 3.286-2.091 4.979"/>
  <path d="m309.13 428.04s-0.299 3.485-3.785 6.374"/>
  <path d="m286.53 435.81s3.386-2.191 7.171-6.374"/>
  <path d="m284.5 428.47s-0.553 2.49-4.795 5.072"/>
  <path d="m277.12 426.99s0.461 2.305-2.214 4.519"/>
  <path d="m180.04 409.55s-0.117 3.628 0.819 9.54"/>
  <path d="m185.78 405.16s-0.878 4.331 1.112 7.784"/>
  <path d="m162.6 386.14s33.539-6.146 42.085-0.176"/>
  <path d="m187.07 370.1s21.305 7.082 22.71 12.935"/>
  <path d="m278.01 352.49 1.784 4.682"/>
  <path d="m278.68 341.34v3.121"/>
 </g>
</svg>
