<?xml version="1.0" encoding="utf-8"?>
<!-- Generator: Adobe Illustrator 21.0.0, SVG Export Plug-In . SVG Version: 6.00 Build 0)  -->
<svg version="1.1" id="Layer_1" xmlns="http://www.w3.org/2000/svg" xmlns:xlink="http://www.w3.org/1999/xlink" x="0px" y="0px"
	 viewBox="0 0 70 70" style="enable-background:new 0 0 70 70;" xml:space="preserve"><g><path class="st0" d="M35,0C15.7,0,0,15.7,0,35c0,14.1,8.3,26.3,20.4,31.8c0-1.5,0-3.1,0.1-4.6C20.9,58,22.2,54,23.1,50
		c0.8-3.5,1.6-7.1,2.5-10.6c0.1-0.4-0.1-0.7-0.2-1c-1.3-3.9-1.4-7.7,0.7-11.3c1.2-2,3-3.3,5.4-3.3c2.7,0,4.7,2,4.8,4.7
		c0.1,2.8-0.8,5.4-1.6,8.1c-0.6,1.9-1.2,3.8-1.6,5.8c-0.7,3.1,1.4,6.2,4.5,6.7c3.6,0.6,6.3-1.1,8.4-3.8c2.4-3,3.5-6.6,4-10.3
		c0.3-1.8,0.5-3.5,0.5-5.3c-0.2-7.1-4.2-12.4-11.7-13.6c-5.3-0.9-10.3,0-14.7,3.2c-3.6,2.7-5.8,6.4-6.6,10.8
		c-0.5,2.8-0.5,5.6,0.8,8.3c0.4,0.8,0.9,1.6,1.5,2.3c0.4,0.5,0.6,1,0.4,1.7c-0.3,0.9-0.5,1.9-0.7,2.8c-0.3,1.1-1,1.5-2,1
		c-3.1-1.4-5.2-3.8-6.2-7c-2.3-7.3-1.1-14,3.6-20c3.9-5.1,9.2-8,15.4-9.1c5.6-1,11.2-0.8,16.4,1.6c6.6,3,10.9,8.1,12.3,15.4
		c0.5,2.3,0.3,4.7,0.1,7.1c-0.3,3.4-1.1,6.8-2.7,9.9c-2.6,5.3-6.5,9.2-12.3,10.7c-4,1-7.8,0.9-11.2-1.6c-0.8-0.6-1.5-1.3-2.2-2.3
		c-0.6,2.2-1.1,4.2-1.6,6.2c-0.8,4.1-2.4,7.8-4.5,11.3c3.2,1,6.6,1.5,10.2,1.5c19.3,0,35-15.7,35-35S54.3,0,35,0z"/></g></svg>
