<?xml version="1.0" encoding="utf-8"?>
<!-- Generator: Adobe Illustrator 21.0.0, SVG Export Plug-In . SVG Version: 6.00 Build 0)  -->
<svg version="1.1" id="Layer_1" xmlns="http://www.w3.org/2000/svg" xmlns:xlink="http://www.w3.org/1999/xlink" x="0px" y="0px" viewBox="0 0 1586 395.5" style="enable-background:new 0 0 1586 395.5;" xml:space="preserve"><style type="text/css">.st0{display:none;fill:#151143;}.st1{fill:#2B3990;}.st2{fill:#FFFFFF;}.st3{fill:#FFF200;}.st4{display:none;}.st5{display:inline;}.st6{clip-path:url(#SVGID_2_);fill:#FFF200;}.st7{clip-path:url(#SVGID_4_);fill:#151143;}.st8{clip-path:url(#SVGID_6_);fill:#151143;}.st9{clip-path:url(#SVGID_8_);fill:#151143;}.st10{clip-path:url(#SVGID_10_);fill:#151143;}.st11{clip-path:url(#SVGID_12_);fill:#151143;}.st12{clip-path:url(#SVGID_14_);fill:#151143;}.st13{clip-path:url(#SVGID_16_);fill:#151143;}.st14{clip-path:url(#SVGID_18_);fill:#151143;}.st15{clip-path:url(#SVGID_20_);fill:#151143;}.st16{clip-path:url(#SVGID_22_);fill:#151143;}.st17{clip-path:url(#SVGID_24_);fill:#151143;}.st18{clip-path:url(#SVGID_26_);fill:#151143;}.st19{clip-path:url(#SVGID_28_);fill:#151143;}.st20{clip-path:url(#SVGID_30_);fill:#151143;}.st21{clip-path:url(#SVGID_32_);fill:#151143;}.st22{clip-path:url(#SVGID_34_);fill:#151143;}.st23{clip-path:url(#SVGID_36_);fill:#151143;}.st24{clip-path:url(#SVGID_38_);fill:#151143;}.st25{clip-path:url(#SVGID_40_);fill:#151143;}.st26{clip-path:url(#SVGID_42_);fill:#151143;}.st27{clip-path:url(#SVGID_44_);fill:#151143;}.st28{clip-path:url(#SVGID_46_);fill:#151143;}.st29{clip-path:url(#SVGID_48_);fill:#151143;}.st30{clip-path:url(#SVGID_50_);fill:#151143;}.st31{clip-path:url(#SVGID_52_);fill:#151143;}.st32{clip-path:url(#SVGID_54_);fill:#151143;}.st33{clip-path:url(#SVGID_56_);fill:#151143;}.st34{clip-path:url(#SVGID_58_);fill:#151143;}.st35{clip-path:url(#SVGID_60_);fill:#151143;}.st36{clip-path:url(#SVGID_62_);fill:#151143;}.st37{clip-path:url(#SVGID_64_);fill:#151143;}.st38{clip-path:url(#SVGID_66_);fill:#151143;}.st39{clip-path:url(#SVGID_68_);fill:#151143;}.st40{clip-path:url(#SVGID_70_);fill:#151143;}.st41{clip-path:url(#SVGID_72_);fill:#151143;}.st42{clip-path:url(#SVGID_74_);fill:#151143;}.st43{clip-path:url(#SVGID_76_);fill:#151143;}.st44{clip-path:url(#SVGID_78_);fill:none;stroke:#262262;stroke-miterlimit:10;}.st45{clip-path:url(#SVGID_80_);fill:none;stroke:#262262;stroke-miterlimit:10;}.st46{clip-path:url(#SVGID_82_);fill:#FFFFFF;}</style><rect x="-54.5" y="-39.7" class="st0" width="1699.7" height="642.1"/><path class="st1" d="M1256,332.5c3.2,0,3.2-5,0-5S1252.8,332.5,1256,332.5"/><path class="st2" d="M602.1,344.7c-2.4,13.8-4.8,26.2-6.6,38.7c-0.8,5.6-3.1,7.8-8.7,7.5c-6-0.3-12,0.1-18-0.1c-4.7-0.2-7.1-2.4-6.1-7.5c4.8-26.2,10-52.3,14.2-78.5c2.5-15.5,6-30.7,7.9-46.2c0.5-3.7,2-5,5.6-5c6.6,0.1,13.2,0,19.7,0c6.5,0.1,8,1.8,6.9,8.1c-1.7,9.7-3.5,19.4-5.2,29.1c-0.2,1.4-1.4,3.3,0.6,4.1c1.8,0.7,2.6-1.1,3.5-2.3c8.5-11.4,17.1-22.7,25.5-34.2c2.4-3.2,5-5.1,9.2-4.9c5.7,0.2,11.4,0.1,18.2,0.1c-72.1-30.7-103.6-84-86.1-159.3c13.6-58.3,60.4-89,109.5-93.6C764-6,808.7,35.2,827,80.7c19.2,47.7,10.3,115.9-50.9,157.8c9.9-2.1,17.8-5.7,25.9-8.8c44.9-17,85.5-41.3,122.5-71.7c14.7-12.1,28.9-25.1,41.4-39.6c4.9-5.7,4.8-6.2-1.8-9.5c-1.5-0.8-4.4-0.9-4-3.5c0.5-2.6,2.9-3.4,5.4-3.5c1.9-0.1,3.9-0.1,5.8-0.1c6.7,0,10.9-3.1,12.7-9.3c1.1-3.7-1.6-4.9-4.3-5.4c-5.9-1.1-11.8-1.9-17.7-2.7c-2.1-0.3-4.9,0-4.9-2.8c-0.1-2.8,2.6-2.9,4.8-3c4.8-0.4,9.6-0.9,14.5-1c4.4-0.1,8.3-0.3,11.1-4.6c1.5-2.3,3.9-2.8,5,0.8c0.4,1.2-0.3,2.9,1.7,3.2c2.1,0.3,3.1-1,4.1-2.6c2.4-3.5,4.6-7.2,7.4-10.3c2.2-2.5,5.4-6.1,8.7-3.8c3.2,2.2,1.3,6.6-0.3,9.6c-2.1,3.7-5,6.9-7.1,10.5c-1.2,2.1-3.2,5.3,2.3,5.1c2.4-0.1,3.7,2.6,2.6,4.1c-6,8.2-0.1,15.6,1.1,23.2c0.5,3.1,3.6,7.2-0.4,8.7c-3.8,1.5-4-3.6-5.4-6.1c-2.9-5-5.3-10.3-9-14.9c-2-2.5-3.1-3.1-5.8-0.5c-4.9,4.8-6.4,9.8-3.1,16.1c0.7,1.3,1.1,2.9,1.4,4.4c0.3,2,0.1,4-2,5c-2,0.9-3.1-0.6-4.4-1.9c-4.8-5.1-4.6-4.9-9.5,0.5c-14.3,16.1-29.9,30.8-46.6,44.3c-39.9,32.1-84.5,55.6-133,71.5c-16.9,5.5-34.2,9.7-51.7,13.5c7.3,0,14.7,0.1,22,0c3.7-0.1,5,1.1,5.8,5.1c3.6,17.5,0.4,35.5,3.9,53.1c1,5.4-1.2,11.1,1.6,17.6c1.1-4.5,2.2-8,2.7-11.7c2.7-20.1,7.8-39.7,9.9-59.9c0.3-2.8,1.7-4.2,4.5-4.2c6.8,0,13.5-0.1,20.3-0.1c3.4,0,5,1.8,5.2,5c0.1,1.9,0.3,4-0.2,5.8c-4.7,17.8-6.3,36.1-10.1,54c-2.9,13.8-4.4,27.8-7,41.6c-1.6,8.3-3.3,16.6-4.3,25.1c-0.5,4.6-3,6.1-7.4,6c-9.1-0.2-18.2-0.3-27.3,0c-5.1,0.2-6.4-1.5-6.6-6.6c-1.2-23.5-3-46.9-5.2-70.5c-0.9,8.4-3.3,16.6-4.7,24.9c-2.5,15.2-5.3,30.4-7.8,45.6c-0.8,4.7-3,6.7-7.7,6.5c-5-0.2-10.1,0-15.1-0.1c-6.5-0.1-8.4-2.3-7.4-8.7c1.3-8.4,3-16.7,4.5-25.1c3-17.1,5.8-34.3,9.2-51.3c2.9-14.4,4.9-28.9,7.4-43.3c0.4-2.4,1.6-5.2-1.9-6.3c-3.6-1.2-10.1,1.4-10.7,4.4c-1.3,6.4-2.5,12.9-3.6,19.3c-4.9,30.7-9.8,61.4-16.1,91.8c-1,4.9-1.9,9.8-2.5,14.8c-0.4,3.1-2,4.4-4.9,4.4c-7,0-13.9,0-20.9-0.1c-4.3,0-6.2-2.2-6-6.6c0.2-7.4,3.1-14.3,4.2-21.5c2.7-17.6,5.8-35.1,8.9-52.5c2.6-14.8,5.5-29.6,8.2-44.3c0.4-2.1,0.6-4.2,0.4-6.3c-0.2-3.1-1.7-4.2-5.2-4.4c-4-0.2-3.3,1.7-3,4c0.2,1.1,0.1,1.9-0.9,3c-16.6,18-30.1,38.5-45.6,57.5c-2,2.4-1.9,4.9-0.7,7.6c6.1,14.4,11.5,29.1,18.3,43.2c2.1,4.3,3.8,8.9,5.3,13.5c1.4,4.2,0,7-4.8,7c-7.3,0.1-14.7,0-22,0c-3.6,0-5.1-2.2-6.1-5.2c-4.3-12.4-10.1-24.2-15.3-36.3C604,348.2,603.3,347.1,602.1,344.7 M656.9,127.1c-1.3,30.4,23.1,51.6,48.5,52c28,0.4,50.7-21.4,51.5-48.2c0.9-31.8-23.2-51.7-49-53C681.8,76.6,655.2,101.9,656.9,127.1"/><path class="st2" d="M502.4,255.1c-30-5-53-20.1-75.3-37c-4.1-3.1-8.3-6.3-12.5-9.3c-3.2-2.3-5.1-1-5.9,3.7c-1.8,10.9-3.8,21.7-5.4,32.6c-0.7,5-3.2,6.7-8.2,6.6c-33.6-0.2-67.3-0.1-101-0.1c-6.6,0-11.1-4.6-10-11.1c2.9-17.7,6.3-35.3,9.4-53c3.1-17.9,5.9-35.8,9.1-53.7c5.6-31.5,11.7-62.9,17.1-94.5c1.8-10.8,5.1-21.4,5.4-32.5c0.1-5,3.2-5.8,7.4-5.8c19,0.1,37.9,0,56.9,0c18,0,36-0.7,53.9,0.2c17.2,0.9,34.4,2.4,51.5,6.1c18.2,3.9,33.9,11.8,46.1,25.5c12.9,14.5,20,31.8,21.4,51.4c2.3,32.1-8.2,59.7-29.2,83.4c-17.5,19.6-38.6,34.1-64.6,40.3c-1.2,0.3-2.4,0.6-2.7,1.8c-0.6,1.8,1.2,2.2,2.2,2.9c12.4,8.2,26.5,12.3,40.8,15.8c3.4,0.8,6.8,1.5,10,2.8c5.2,2,7.6,9,5,16.1c-1.2,3.4-0.7,3.7,2.7,4.6c8.3,2,16.9,0.8,25,3.8c13.2,4.9,20.2,11.8,15.8,27.7c-2.5,9.1-2.5,18.8-4.4,28c-3.7,17.5-6.8,35.2-9.1,53c-2.2,16.6-14.5,24.5-28.4,26c-16.6,1.8-33.5,2.9-50.1-1.6c-8.1-2.1-13.6-8.6-13.7-17c-0.2-8.6,2.1-16.8,3.3-25.2c1.7-11.6,4-23.1,6-34.7c2.2-12.2,3.8-24.5,6.6-36.4C480.3,263.6,489.5,258.1,502.4,255.1 M458,28.7c-4.1,0-8.1,0-12.2,0c-2.7,0-4.2,1.2-4.7,4c-2.8,16.1-5.8,32.2-8.7,48.3c-4.7,25.8-8.4,51.8-14,77.4c-2.2,10.3-0.6,18.9,8.9,25c3.7,2.4,6.7,6.2,11.7,5.1c9-2.1,18.3-2.4,27.1-5.6c19.9-7.3,37.3-18.4,50.9-35c18.3-22.4,24-47.7,16.3-75.5c-3.8-13.8-13.1-24.7-25.4-31.8C492.7,31.7,475.3,30,458,28.7 M503.6,374.3c12.2,0,15.9-3.4,17.8-13.9c3-17.5,6.3-34.9,9.5-52.3c1.4-7.8,3.1-15.5,4.5-23.3c1.7-9.4-0.2-13.7-7.2-13.7c-11.5,0.1-19.5,0.6-19.9,14.7c0,0.8-0.2,1.5-0.4,2.3c-4.7,26-9.3,52-14.1,78c-0.9,4.9,1.7,6.8,5.5,7.9C501.2,374.5,503.2,374.2,503.6,374.3"/><path class="st2" d="M113.6,0.9c10.8,0,21.7,0.4,32.5-0.1C163.9,0,181.5,2,199.2,3.5c22,1.8,42.8,8.4,59.3,24.3c10,9.6,17.7,20.7,22.2,34.1c6,18.3,6.1,36.5,1.7,55.2c-6,25.1-19.4,45.6-37.9,62.7c-11.2,10.3-24.6,17.7-38.9,23.4c-19.8,8-40.3,9.9-61.3,8.9c-3.9-0.2-8.5-3.2-11.6-0.1c-2.8,2.8-1.7,7.7-2.6,11.6c-1.9,7.5-3.3,15-3.7,22.7c-0.2,4.6-3.6,5.3-7.5,5.2c-18.8-0.1-37.5,0-56.3,0c-15.3,0-30.5,0-45.8,0c-7.3,0-11-5.6-9.6-12.8c3.2-15.7,5.6-31.6,9.2-47.2c4.2-18.5,6.5-37.2,10.8-55.7c3.5-15.4,5.2-31.2,7.7-46.8c4.5-27.2,9.2-54.4,13.3-81.6c0.9-5.6,3.7-6.5,8.2-6.5C75.3,0.9,94.5,0.9,113.6,0.9 M155.8,186.7c8.9,0,17.6-0.4,26.4-2.3c17.7-3.8,32.8-12.2,46.1-24.1c15.9-14.2,25.8-31.8,30-52.9c5-24.8-2.8-45.5-21-61.4C224,34.3,207,29.1,188.9,28.7c-4.8-0.1-9.5-0.1-14.3-1.5c-7.4-2.2-10.4,0.1-11.7,7.4c-2.3,12.5-4.8,25-7,37.5c-4.4,25.5-8.4,51-13.5,76.3c-1.9,9.2-3.5,18.5-4.9,27.8c-1.2,8,0.5,9.7,8.5,10C149.2,186.3,152.5,186.5,155.8,186.7"/><path class="st2" d="M289.8,390.9c-11.6,0-19.3,0.1-27,0c-6.1-0.1-7.9-2-7.1-7.7c1.3-8.9,3.1-17.7,4.6-26.5c1.8-10.4,3.4-20.9,5.5-31.3c4.1-21,7.4-42.1,10.9-63.2c1.3-8,1.9-8.5,9.6-8.2c14.1,0.6,28.2-1.4,42.2,0.1c8.4,0.9,16.7,2.1,23.9,7.6c4.7,3.6,7.4,7.9,7.3,13.6c-0.2,12.2-2.9,24.1-6.3,35.8c-1,3.6-2.7,7.1-6.5,9.2c-1.9,1-3.4,3.2-1.4,5.3c5.6,5.8,3.4,12.8,2.6,19.2c-1,8.6-2.7,17.1-4.5,25.5c-1.8,8.6-8.5,13-16,16.1C314.2,392,300,391.1,289.8,390.9 M307,311.6c9.4-0.6,16.3-4.2,17.1-10.6c0.7-6.5,2-12.9,3-19.4c0.5-3.3,0.1-7.1-3-8c-5-1.4-10.2-4-15.6-2.3c-2,0.6-1.4,2.9-1.7,4.6c-1.6,9.9-2.9,19.8-4.8,29.6C300.9,311.3,300.9,311.8,307,311.6 M298.4,372.3c7.7-0.1,12.3-2.4,13.5-7.6c1.7-7.3,3.2-14.7,4.3-22.1c0.9-6.5-1.3-8.7-8.2-9.5c-8.5-1.1-11.5,0.5-12.6,6.9c-1.4,8.2-2.7,16.3-3.8,24.5C290.5,372.3,290.6,372.4,298.4,372.3"/><path class="st2" d="M399.4,391.1c-6,0-12,0-18,0c-9.1,0-16.2-4.2-22.6-10.2c-1.9-1.8-2.5-3.9-2.2-6.3c2.1-19.6,5.3-38.9,9.2-58.2c2.2-10.8,4.3-21.6,5.4-32.5c1.5-14,6.5-24.4,24.7-28.3c17.8-3.8,35.5-5,52.9,1c12.6,4.3,18,11.8,14.1,26.4c-2.8,10.2-3.5,20.9-5.4,31.3c-3.4,19.2-6.6,38.4-10.5,57.5c-1.5,7.1-7,11.4-13.5,14.8C422.5,392.3,410.9,391,399.4,391.1 M400.5,374.2c9,1.4,16.2-5.5,16.9-14.1c1.5-17.5,6.3-34.4,8.7-51.7c1.4-9.9,4-19.7,4.8-29.7c0.2-2.8-0.2-4.8-2.8-6.3c-9.7-5.5-22.9,0.2-24.8,11.1c-4.5,26.2-8.6,52.5-13.6,78.6C388.2,370.1,391.9,375.4,400.5,374.2"/><path class="st2" d="M888.6,318.6c6.2,0,12.4,0,18.6,0c4.5,0,6.4,2.1,5.6,6.6c-2.4,13.7-4.8,27.4-7.2,41.1c-1,5.5-2.2,11-2.8,16.5c-0.3,3.1-1.9,4.6-4.5,5.3c-4.8,1.3-9.5,3.4-14.7,3c-5.7-0.4-11.1,2.2-16.6,1.8c-13-0.9-26.1-1-38.9-4.2c-8.4-2-14.1-9.6-13.6-18.1c0.9-18.3,5.3-36.2,8.2-54.3c2-12.4,4.7-24.6,6.3-37.1c1.4-11,7.5-18.4,18.4-22.4c10.2-3.8,21-4.4,31.3-4.8c10.7-0.4,21.9,1,31.9,6.3c7.5,3.9,11.9,10.6,10.3,18.8c-1.1,6.2-1.3,12.6-3.3,18.8c-0.9,2.9-2.2,4.3-5.2,4.2c-7,0-13.9,0.1-20.9,0c-4.8-0.1-6.3-2.8-5.5-7.3c0.7-4,1.3-8,1.7-12c0.7-6.8-0.7-8.5-7.3-10.1c-9.1-2.2-17.8,3.8-19.4,13c-3.9,21.8-8.1,43.6-12.2,65.5c-1,5.5-1.8,11-3,16.5c-0.5,2.3,0.4,3.7,1.8,5.1c2.6,2.7,5.8,3.4,9.5,3.5c18.9,0.2,13.5,0,17.2-14.6c1.4-5.3,1.6-11.1,2.8-16.5c0.8-3.7,0.1-5.3-4.1-5.4c-10.6-0.3-11.1-1.2-9.2-12c0.8-5,2.5-8.1,8.5-7.4C877.7,319.1,883.2,318.5,888.6,318.6"/><path class="st3" d="M1021.3,358.1l19.5,12.5c-5.1,8.1-11.8,14.2-19.8,18.5s-17.2,6.4-27.5,6.4c-14.2,0-25.4-4.6-33.4-13.9S948,359.4,948,342.9c0-11.7,1.5-22.9,4.6-33.6s7.3-19.9,12.8-27.6c5.4-7.5,11.9-13.3,19.4-17.1c7.5-3.9,15.7-5.8,24.8-5.8c11.8,0,21.5,3.1,28.9,9.4c7.5,6.3,12.2,15.3,14.2,26.9l-22.1,3.7c-1-6-3.4-10.7-7.2-14.1c-3.8-3.4-8.7-5-14.7-5c-4.8,0-9.3,1.3-13.5,3.8c-4.1,2.5-7.6,6.2-10.4,10.9c-3.8,6.4-6.8,14.2-9.1,23.5c-2.3,9.3-3.4,18.7-3.4,28.2c0,8.8,2.1,15.7,6.3,20.8c4.2,5.1,9.9,7.6,17.1,7.6c5.4,0,10.3-1.4,14.8-4.3C1014.9,367.3,1018.6,363.3,1021.3,358.1"/><polygon class="st3" points="1052.2,393 1082,260.2 1154.2,260.2 1149.4,281.2 1102.5,281.2 1095.4,313.4 1134.4,313.4 1129.7,334.2 1090.6,334.2 1082.2,371.6 1142.1,371.6 1137.3,393 "/><polygon class="st3" points="1150.9,393 1180.7,260.2 1206.5,260.2 1236.5,352.5 1257,260.2 1281.1,260.2 1251.1,393 1227.9,393 1196.5,296.3 1175,393 "/><polygon class="st3" points="1298.9,393 1323.9,281.9 1291.6,281.9 1296.5,260.2 1383.3,260.2 1378.4,281.9 1349.8,281.9 1324.6,393 "/><polygon class="st3" points="1372.2,393 1402,260.2 1474.3,260.2 1469.4,281.2 1422.6,281.2 1415.4,313.4 1454.5,313.4 1449.8,334.2 1410.7,334.2 1402.2,371.6 1462.2,371.6 1457.3,393 "/><path class="st3" d="M1471,393l29.8-132.7h32.8c16,0,28,2.9,35.8,8.7c7.8,5.8,11.7,14.7,11.7,26.7c0,10-2.8,18.3-8.3,25s-13.3,11-23.3,13l20.9,59.4h-25.8l-18.6-55.5h-17.4l-12.3,55.5H1471V393z M1512.9,317h16.5c8.9,0,15.7-1.8,20.4-5.3c4.7-3.5,7-8.5,7-15.1c0-5.6-1.7-9.8-5.1-12.4s-8.6-3.9-15.8-3.9H1521L1512.9,317z"/><g class="st4"><g class="st5"><g><defs><rect id="SVGID_1_" x="1145.3" y="-39.5" width="444.7" height="259.1"></defs><clipPath id="SVGID_2_"><use xlink:href="#SVGID_1_"  style="overflow:visible;"/></clipPath><path class="st6" d="M1540.1,219.3h-345c-27.5,0-49.8-22.3-49.8-49.8V-52.7c0-27.5,22.3-49.8,49.8-49.8h345c27.5,0,49.8,22.3,49.8,49.8v222.1C1590,196.9,1567.6,219.3,1540.1,219.3"/></g></g></g><g class="st4"><g class="st5"><g><defs><rect id="SVGID_3_" x="-55" y="-40" width="1700.8" height="850.4"/></defs><clipPath id="SVGID_4_"><use xlink:href="#SVGID_3_"  style="overflow:visible;"/></clipPath><polygon class="st7" points="1213.6,11.1 1213.6,33.9 1209,33.9 1209,11.1 1200.5,11.1 1200.5,7 1222.2,7 1222.2,11.1 "/></g></g><g class="st5"><g><defs><rect id="SVGID_5_" x="-55" y="-40" width="1700.8" height="850.4"/></defs><clipPath id="SVGID_6_"><use xlink:href="#SVGID_5_"  style="overflow:visible;"/></clipPath><path class="st8" d="M1249.4,20.4c0,4-1.1,7.3-3.4,10c-2.4,2.8-5.5,4.2-9.4,4.2s-7-1.4-9.4-4.2c-2.3-2.7-3.4-6-3.4-10c0-2,0.3-3.8,0.9-5.4c0.6-1.6,1.4-3.1,2.6-4.4c1.2-1.4,2.5-2.4,4.1-3.1c1.6-0.7,3.3-1,5.2-1c3.9,0,7.1,1.4,9.4,4.2c1.1,1.3,2,2.8,2.5,4.4C1249.1,16.6,1249.4,18.4,1249.4,20.4 M1244.7,20.4c0-2.8-0.6-5.2-1.9-7c-1.5-2.1-3.6-3.2-6.2-3.2c-2.7,0-4.8,1.1-6.2,3.2c-1.3,1.9-2,4.2-2,7c0,2.9,0.7,5.3,2,7.1c1.5,2.1,3.5,3.2,6.2,3.2c2.6,0,4.7-1.1,6.2-3.2C1244.1,25.6,1244.7,23.2,1244.7,20.4"/></g></g><g class="st5"><g><defs><rect id="SVGID_7_" x="-55" y="-40" width="1700.8" height="850.4"/></defs><clipPath id="SVGID_8_"><use xlink:href="#SVGID_7_"  style="overflow:visible;"/></clipPath><path class="st9" d="M1274.5,28.7c-0.5,1.3-1.2,2.4-2.2,3.2c-1,0.9-2.1,1.5-3.5,2c-1.4,0.4-2.9,0.7-4.6,0.7c-3.4,0-6-0.9-7.9-2.6c-2-1.8-3-4.4-3-7.8V7h4.6v15.7c0,1.2,0.1,2.3,0.2,3.1c0.1,0.9,0.4,1.6,0.7,2.1c0.9,1.7,2.7,2.6,5.4,2.6c2.7,0,4.5-0.9,5.4-2.6c0.6-1.1,0.9-2.8,0.9-5.2V7h4.7v17.2C1275.3,25.9,1275,27.4,1274.5,28.7"/></g></g><g class="st5"><g><defs><rect id="SVGID_9_" x="-55" y="-40" width="1700.8" height="850.4"/></defs><clipPath id="SVGID_10_"><use xlink:href="#SVGID_9_"  style="overflow:visible;"/></clipPath><path class="st10" d="M1298.1,33.9c-0.4-0.7-0.7-2.1-0.7-3.9c0-2.6-0.3-4.4-1-5.5c-0.8-1.1-2.3-1.6-4.3-1.6h-6.9V34h-4.7V7h12.9c5.8,0,8.7,2.5,8.7,7.4c0,3.4-1.5,5.6-4.4,6.7v0.1c2.7,0.5,4,2.4,4,5.7c0,3.7,0.5,6,1.4,7.1L1298.1,33.9L1298.1,33.9z M1297.4,15c0-2.7-1.5-4.1-4.6-4.1h-7.7v8.3h7.7C1295.9,19.2,1297.4,17.8,1297.4,15"/></g></g><g class="st5"><g><defs><rect id="SVGID_11_" x="-55" y="-40" width="1700.8" height="850.4"/></defs><clipPath id="SVGID_12_"><use xlink:href="#SVGID_11_"  style="overflow:visible;"/></clipPath><polygon class="st11" points="1345.9,33.9 1341.1,33.9 1335.8,13.4 1335.7,13.4 1330.3,33.9 1325.4,33.9 1318.5,7 1323.2,7 1328,27.7 1328,27.7 1333.4,7 1338.2,7 1343.4,27.7 1343.4,27.7 1348.4,7 1353.1,7 "/></g></g><g class="st5"><g><defs><rect id="SVGID_13_" x="-55" y="-40" width="1700.8" height="850.4"/></defs><clipPath id="SVGID_14_"><use xlink:href="#SVGID_13_"  style="overflow:visible;"/></clipPath><polygon class="st12" points="1372.9,33.9 1372.9,21.8 1360.7,21.8 1360.7,33.9 1356,33.9 1356,7 1360.7,7 1360.7,17.7 1372.9,17.7 1372.9,7 1377.6,7 1377.6,33.9 "/></g></g><g class="st5"><g><defs><rect id="SVGID_15_" x="-55" y="-40" width="1700.8" height="850.4"/></defs><clipPath id="SVGID_16_"><use xlink:href="#SVGID_15_"  style="overflow:visible;"/></clipPath><path class="st13" d="M1407.3,20.4c0,4-1.1,7.3-3.4,10c-2.4,2.8-5.5,4.2-9.4,4.2s-7-1.4-9.4-4.2c-2.3-2.7-3.4-6-3.4-10c0-2,0.3-3.8,0.9-5.4c0.6-1.6,1.4-3.1,2.6-4.4c1.2-1.4,2.5-2.4,4.1-3.1c1.6-0.7,3.3-1,5.2-1c3.9,0,7.1,1.4,9.4,4.2c1.1,1.3,2,2.8,2.5,4.4C1407.1,16.6,1407.3,18.4,1407.3,20.4 M1402.7,20.4c0-2.8-0.6-5.2-1.9-7c-1.5-2.1-3.6-3.2-6.2-3.2c-2.7,0-4.8,1.1-6.2,3.2c-1.3,1.9-2,4.2-2,7c0,2.9,0.7,5.3,2,7.1c1.5,2.1,3.5,3.2,6.2,3.2c2.6,0,4.7-1.1,6.2-3.2C1402,25.6,1402.7,23.2,1402.7,20.4"/></g></g><g class="st5"><g><defs><rect id="SVGID_17_" x="-55" y="-40" width="1700.8" height="850.4"/></defs><clipPath id="SVGID_18_"><use xlink:href="#SVGID_17_"  style="overflow:visible;"/></clipPath><polygon class="st14" points="1411.5,33.9 1411.5,7 1416.2,7 1416.2,29.9 1429.8,29.9 1429.8,33.9 "/></g></g><g class="st5"><g><defs><rect id="SVGID_19_" x="-55" y="-40" width="1700.8" height="850.4"/></defs><clipPath id="SVGID_20_"><use xlink:href="#SVGID_19_"  style="overflow:visible;"/></clipPath><path class="st15" d="M1453,26.1c0,2.8-1.1,5-3.3,6.5c-1.9,1.3-4.3,2-7.3,2c-3.3,0-5.8-0.8-7.8-2.3c-2.1-1.7-3.2-4.1-3.3-7.3h4.6c0,3.8,2.3,5.7,6.8,5.7c1.9,0,3.3-0.4,4.3-1.3c0.8-0.7,1.3-1.6,1.3-2.8c0-1.5-0.8-2.6-2.3-3.4c-0.4-0.2-1.1-0.4-1.9-0.7s-1.9-0.5-3.2-0.8c-2.8-0.6-4.7-1.3-5.8-2c-1.8-1.2-2.7-3.1-2.7-5.6s1-4.6,3.1-6c1.8-1.2,4-1.9,6.6-1.9c2.9,0,5.2,0.7,7.1,2.2c2,1.5,3,3.7,3,6.3h-4.7c-0.2-3.1-2.1-4.7-5.9-4.7c-1.2,0-2.2,0.3-3.2,1s-1.5,1.6-1.5,2.7c0,1.5,0.8,2.5,2.4,3.2c0.3,0.1,0.8,0.3,1.7,0.5c0.9,0.2,2.1,0.5,3.6,0.8c1.3,0.3,2.4,0.6,3.4,0.9c0.9,0.4,1.7,0.8,2.3,1.2C1452.2,21.8,1453,23.7,1453,26.1"/></g></g><g class="st5"><g><defs><rect id="SVGID_21_" x="-55" y="-40" width="1700.8" height="850.4"/></defs><clipPath id="SVGID_22_"><use xlink:href="#SVGID_21_"  style="overflow:visible;"/></clipPath><path class="st16" d="M1474.4,33.9l-2.5-7.1h-10.6l-2.4,7.1h-4.9L1464.2,7h5l10.2,26.9H1474.4z M1466.7,11.6L1466.7,11.6l-4.1,11.7h8.2L1466.7,11.6z"/></g></g><g class="st5"><g><defs><rect id="SVGID_23_" x="-55" y="-40" width="1700.8" height="850.4"/></defs><clipPath id="SVGID_24_"><use xlink:href="#SVGID_23_"  style="overflow:visible;"/></clipPath><polygon class="st17" points="1481.8,33.9 1481.8,7 1486.5,7 1486.5,29.9 1500.1,29.9 1500.1,33.9 "/></g></g><g class="st5"><g><defs><rect id="SVGID_25_" x="-55" y="-40" width="1700.8" height="850.4"/></defs><clipPath id="SVGID_26_"><use xlink:href="#SVGID_25_"  style="overflow:visible;"/></clipPath><polygon class="st18" points="1503.3,33.9 1503.3,7 1522.7,7 1522.7,11.1 1508,11.1 1508,18.1 1521.4,18.1 1521.4,22 1508,22 1508,29.9 1522.7,29.9 1522.7,33.9 "/></g></g><g class="st5"><g><defs><rect id="SVGID_27_" x="-55" y="-40" width="1700.8" height="850.4"/></defs><clipPath id="SVGID_28_"><use xlink:href="#SVGID_27_"  style="overflow:visible;"/></clipPath><path class="st19" d="M1544.6,33.9c-0.4-0.7-0.7-2.1-0.7-3.9c0-2.6-0.3-4.4-1-5.5c-0.8-1.1-2.3-1.6-4.3-1.6h-6.9V34h-4.7V7h12.9c5.8,0,8.7,2.5,8.7,7.4c0,3.4-1.5,5.6-4.4,6.7v0.1c2.7,0.5,4,2.4,4,5.7c0,3.7,0.5,6,1.4,7.1L1544.6,33.9L1544.6,33.9z M1543.9,15c0-2.7-1.5-4.1-4.6-4.1h-7.7v8.3h7.7C1542.4,19.2,1543.9,17.8,1543.9,15"/></g></g><g class="st5"><g><defs><rect id="SVGID_29_" x="-55" y="-40" width="1700.8" height="850.4"/></defs><clipPath id="SVGID_30_"><use xlink:href="#SVGID_29_"  style="overflow:visible;"/></clipPath><polygon class="st20" points="1174.6,106.9 1174.6,80 1179.3,80 1179.3,102.9 1192.9,102.9 1192.9,106.9 "/></g></g><g class="st5"><g><defs><rect id="SVGID_31_" x="-55" y="-40" width="1700.8" height="850.4"/></defs><clipPath id="SVGID_32_"><use xlink:href="#SVGID_31_"  style="overflow:visible;"/></clipPath><path class="st21" d="M1213.4,106.9l-2.5-7.1h-10.6l-2.4,7.1h-4.9l10.2-26.9h5l10.2,26.9H1213.4z M1205.7,84.6L1205.7,84.6l-4.1,11.7h8.2L1205.7,84.6z"/></g></g><g class="st5"><g><defs><rect id="SVGID_33_" x="-55" y="-40" width="1700.8" height="850.4"/></defs><clipPath id="SVGID_34_"><use xlink:href="#SVGID_33_"  style="overflow:visible;"/></clipPath><polygon class="st22" points="1237.4,106.9 1225.2,87 1225.1,87 1225.1,106.9 1220.7,106.9 1220.7,80 1225.6,80 1237.8,99.9 1237.9,99.9 1237.9,80 1242.3,80 1242.3,106.9 "/></g></g><g class="st5"><g><defs><rect id="SVGID_35_" x="-55" y="-40" width="1700.8" height="850.4"/></defs><clipPath id="SVGID_36_"><use xlink:href="#SVGID_35_"  style="overflow:visible;"/></clipPath><path class="st23" d="M1270.6,93.4c0,4-0.9,7.2-2.7,9.6c-2.1,2.6-5,3.9-8.9,3.9h-11.1V80h11.1c3.9,0,6.8,1.3,8.9,3.9C1269.7,86.2,1270.6,89.4,1270.6,93.4 M1266,93.4c0-1.5-0.1-2.8-0.4-4c-0.3-1.1-0.7-2-1.2-2.8c-1.4-1.9-3.8-2.8-7.1-2.8h-4.6v19.3h4.6c3.4,0,5.7-0.9,7.1-2.8c0.5-0.8,1-1.7,1.2-2.9C1265.8,96.3,1266,94.9,1266,93.4"/></g></g><g class="st5"><g><defs><rect id="SVGID_37_" x="-55" y="-40" width="1700.8" height="850.4"/></defs><clipPath id="SVGID_38_"><use xlink:href="#SVGID_37_"  style="overflow:visible;"/></clipPath><path class="st24" d="M1305.7,106.9l-2.3-2.9c-1.8,2.3-4.3,3.4-7.6,3.4c-1.2,0-2.4-0.2-3.4-0.5c-1-0.4-1.9-0.9-2.6-1.6c-0.7-0.7-1.3-1.5-1.7-2.5c-0.4-1-0.6-2.1-0.6-3.4c0-3.1,2-5.7,6.1-7.8c-1.8-2.2-2.6-4.2-2.6-5.8c0-1,0.2-1.8,0.5-2.6c0.3-0.8,0.8-1.5,1.4-2s1.3-1,2.1-1.3c0.8-0.3,1.6-0.4,2.6-0.4c1.9,0,3.4,0.5,4.6,1.6c1.3,1.2,2,2.8,2,4.8c0,2.8-1.6,5.1-4.7,6.9l4,5c0.4-1.3,0.7-2.5,0.8-3.6h3.7c-0.3,2.6-1,4.8-2.1,6.6l5.1,6.3L1305.7,106.9L1305.7,106.9z M1295.8,94.5c-0.8,0.5-1.4,0.9-1.8,1.1c-0.4,0.3-0.7,0.5-0.8,0.6c-0.9,0.8-1.4,2-1.4,3.4c0,0.7,0.1,1.3,0.3,1.9c0.2,0.6,0.5,1,0.9,1.4s0.8,0.7,1.3,0.9s1.1,0.3,1.7,0.3c2.1,0,3.8-1,5.1-2.9L1295.8,94.5z M1300.2,85.7c0-0.9-0.2-1.7-0.7-2.2c-0.5-0.6-1.1-0.9-2-0.9c-0.8,0-1.5,0.3-2,0.8s-0.8,1.3-0.8,2.2c0,0.7,0.3,1.5,0.9,2.4l1.5,2C1299.1,88.7,1300.2,87.2,1300.2,85.7"/></g></g><g class="st5"><g><defs><rect id="SVGID_39_" x="-55" y="-40" width="1700.8" height="850.4"/></defs><clipPath id="SVGID_40_"><use xlink:href="#SVGID_39_"  style="overflow:visible;"/></clipPath><path class="st25" d="M1351.7,93.4c0,4-1.1,7.3-3.4,10c-2.4,2.8-5.5,4.2-9.4,4.2s-7-1.4-9.4-4.2c-2.3-2.7-3.4-6-3.4-10c0-2,0.3-3.8,0.9-5.4s1.4-3.1,2.6-4.4c1.2-1.4,2.5-2.4,4.1-3.1s3.3-1,5.2-1c3.9,0,7.1,1.4,9.4,4.2c1.1,1.3,2,2.8,2.5,4.4C1351.4,89.6,1351.7,91.4,1351.7,93.4 M1347,93.4c0-2.8-0.6-5.2-1.9-7c-1.5-2.1-3.6-3.2-6.2-3.2c-2.7,0-4.8,1.1-6.2,3.2c-1.3,1.9-2,4.2-2,7c0,2.9,0.7,5.3,2,7.1c1.5,2.1,3.5,3.2,6.2,3.2c2.6,0,4.7-1.1,6.2-3.2C1346.4,98.6,1347,96.2,1347,93.4"/></g></g><g class="st5"><g><defs><rect id="SVGID_41_" x="-55" y="-40" width="1700.8" height="850.4"/></defs><clipPath id="SVGID_42_"><use xlink:href="#SVGID_41_"  style="overflow:visible;"/></clipPath><path class="st26" d="M1376.6,88.5c0,2.1-0.6,3.9-1.7,5.4c-1.5,2-4,3-7.4,3h-7V107h-4.7V80h11.7C1373.6,80,1376.6,82.8,1376.6,88.5 M1372,88.3c0-3-1.6-4.5-4.7-4.5h-6.8v9.1h6.8c1.2,0,2.3-0.3,3.2-1C1371.5,91.1,1372,89.9,1372,88.3"/></g></g><g class="st5"><g><defs><rect id="SVGID_43_" x="-55" y="-40" width="1700.8" height="850.4"/></defs><clipPath id="SVGID_44_"><use xlink:href="#SVGID_43_"  style="overflow:visible;"/></clipPath><polygon class="st27" points="1380.6,106.9 1380.6,80 1400.1,80 1400.1,84.1 1385.3,84.1 1385.3,91.1 1398.8,91.1 1398.8,95 1385.3,95 1385.3,102.9 1400.1,102.9 1400.1,106.9 "/></g></g><g class="st5"><g><defs><rect id="SVGID_45_" x="-55" y="-40" width="1700.8" height="850.4"/></defs><clipPath id="SVGID_46_"><use xlink:href="#SVGID_45_"  style="overflow:visible;"/></clipPath><path class="st28" d="M1421.9,106.9c-0.4-0.7-0.7-2.1-0.7-3.9c0-2.6-0.3-4.4-1-5.5c-0.8-1.1-2.3-1.6-4.3-1.6h-6.9V107h-4.7V80h12.9c5.8,0,8.7,2.5,8.7,7.4c0,3.4-1.5,5.6-4.4,6.7v0.1c2.7,0.5,4,2.4,4,5.7c0,3.7,0.5,6,1.4,7.1h-5V106.9z M1421.2,88c0-2.7-1.5-4.1-4.6-4.1h-7.7v8.3h7.7C1419.7,92.2,1421.2,90.8,1421.2,88"/></g></g><g class="st5"><g><defs><rect id="SVGID_47_" x="-55" y="-40" width="1700.8" height="850.4"/></defs><clipPath id="SVGID_48_"><use xlink:href="#SVGID_47_"  style="overflow:visible;"/></clipPath><path class="st29" d="M1447.9,106.9l-2.5-7.1h-10.6l-2.4,7.1h-4.9l10.2-26.9h5l10.2,26.9H1447.9z M1440.2,84.6L1440.2,84.6l-4.1,11.7h8.2L1440.2,84.6z"/></g></g><g class="st5"><g><defs><rect id="SVGID_49_" x="-55" y="-40" width="1700.8" height="850.4"/></defs><clipPath id="SVGID_50_"><use xlink:href="#SVGID_49_"  style="overflow:visible;"/></clipPath><polygon class="st30" points="1465.9,84.1 1465.9,106.9 1461.3,106.9 1461.3,84.1 1452.8,84.1 1452.8,80 1474.5,80 1474.5,84.1 "/></g></g><g class="st5"><g><defs><rect id="SVGID_51_" x="-55" y="-40" width="1700.8" height="850.4"/></defs><clipPath id="SVGID_52_"><use xlink:href="#SVGID_51_"  style="overflow:visible;"/></clipPath><rect x="1477.6" y="80" class="st31" width="4.7" height="26.9"/></g></g><g class="st5"><g><defs><rect id="SVGID_53_" x="-55" y="-40" width="1700.8" height="850.4"/></defs><clipPath id="SVGID_54_"><use xlink:href="#SVGID_53_"  style="overflow:visible;"/></clipPath><path class="st32" d="M1512.1,93.4c0,4-1.1,7.3-3.4,10c-2.4,2.8-5.5,4.2-9.4,4.2s-7-1.4-9.4-4.2c-2.3-2.7-3.4-6-3.4-10c0-2,0.3-3.8,0.9-5.4s1.4-3.1,2.6-4.4c1.2-1.4,2.5-2.4,4.1-3.1s3.3-1,5.2-1c3.9,0,7.1,1.4,9.4,4.2c1.1,1.3,2,2.8,2.5,4.4C1511.8,89.6,1512.1,91.4,1512.1,93.4 M1507.4,93.4c0-2.8-0.6-5.2-1.9-7c-1.5-2.1-3.6-3.2-6.2-3.2c-2.7,0-4.8,1.1-6.2,3.2c-1.3,1.9-2,4.2-2,7c0,2.9,0.7,5.3,2,7.1c1.5,2.1,3.5,3.2,6.2,3.2c2.6,0,4.7-1.1,6.2-3.2C1506.8,98.6,1507.4,96.2,1507.4,93.4"/></g></g><g class="st5"><g><defs><rect id="SVGID_55_" x="-55" y="-40" width="1700.8" height="850.4"/></defs><clipPath id="SVGID_56_"><use xlink:href="#SVGID_55_"  style="overflow:visible;"/></clipPath><polygon class="st33" points="1532.8,106.9 1520.6,87 1520.5,87 1520.5,106.9 1516.1,106.9 1516.1,80 1521.1,80 1533.3,99.9 1533.3,99.9 1533.3,80 1537.8,80 1537.8,106.9 "/></g></g><g class="st5"><g><defs><rect id="SVGID_57_" x="-55" y="-40" width="1700.8" height="850.4"/></defs><clipPath id="SVGID_58_"><use xlink:href="#SVGID_57_"  style="overflow:visible;"/></clipPath><path class="st34" d="M1563.4,99.1c0,2.8-1.1,5-3.3,6.5c-1.9,1.3-4.3,2-7.3,2c-3.3,0-5.8-0.8-7.8-2.3c-2.1-1.7-3.2-4.1-3.3-7.3h4.6c0,3.8,2.3,5.7,6.8,5.7c1.9,0,3.3-0.4,4.3-1.3c0.8-0.7,1.3-1.6,1.3-2.8c0-1.5-0.8-2.6-2.3-3.4c-0.4-0.2-1.1-0.4-1.9-0.7s-1.9-0.5-3.2-0.8c-2.8-0.6-4.7-1.3-5.8-2c-1.8-1.2-2.7-3.1-2.7-5.6c0-2.6,1-4.6,3.1-6c1.8-1.2,4-1.9,6.6-1.9c2.9,0,5.2,0.7,7.1,2.2c2,1.5,3,3.7,3,6.3h-4.7c-0.2-3.1-2.1-4.7-5.9-4.7c-1.2,0-2.2,0.3-3.2,1s-1.5,1.6-1.5,2.7c0,1.5,0.8,2.5,2.4,3.2c0.3,0.1,0.8,0.3,1.7,0.5c0.9,0.2,2.1,0.5,3.6,0.8c1.3,0.3,2.4,0.6,3.4,0.9c0.9,0.4,1.7,0.8,2.3,1.2C1562.5,94.8,1563.4,96.7,1563.4,99.1"/></g></g><g class="st5"><g><defs><rect id="SVGID_59_" x="-55" y="-40" width="1700.8" height="850.4"/></defs><clipPath id="SVGID_60_"><use xlink:href="#SVGID_59_"  style="overflow:visible;"/></clipPath><polygon class="st35" points="1290.5,157.1 1290.5,179.9 1285.8,179.9 1285.8,157.1 1277.4,157.1 1277.4,153 1299,153 1299,157.1 "/></g></g><g class="st5"><g><defs><rect id="SVGID_61_" x="-55" y="-40" width="1700.8" height="850.4"/></defs><clipPath id="SVGID_62_"><use xlink:href="#SVGID_61_"  style="overflow:visible;"/></clipPath><rect x="1302.1" y="153" class="st36" width="4.7" height="26.9"/></g></g><g class="st5"><g><defs><rect id="SVGID_63_" x="-55" y="-40" width="1700.8" height="850.4"/></defs><clipPath id="SVGID_64_"><use xlink:href="#SVGID_63_"  style="overflow:visible;"/></clipPath><path class="st37" d="M1331.8,177.6c-2,2-4.7,3-8,3c-3.9,0-7-1.4-9.4-4.2c-2.3-2.7-3.4-6-3.4-10s1.1-7.3,3.3-9.9c2.3-2.8,5.5-4.2,9.4-4.2c1.5,0,3,0.2,4.3,0.6s2.5,1,3.5,1.8s1.8,1.8,2.4,2.9c0.6,1.1,1,2.4,1.1,3.9h-4.7c-0.7-3.6-2.9-5.4-6.6-5.4c-2.7,0-4.8,1.1-6.2,3.2c-1.3,1.9-2,4.2-2,7c0,2.9,0.7,5.3,2,7.1c1.5,2.1,3.5,3.2,6.2,3.2c2,0,3.6-0.7,4.8-2c1.1-1.2,1.8-2.9,2-5h4.5C1335,172.9,1333.9,175.5,1331.8,177.6"/></g></g><g class="st5"><g><defs><rect id="SVGID_65_" x="-55" y="-40" width="1700.8" height="850.4"/></defs><clipPath id="SVGID_66_"><use xlink:href="#SVGID_65_"  style="overflow:visible;"/></clipPath><polygon class="st38" points="1356.7,179.9 1348,167.2 1344.1,171.3 1344.1,179.9 1339.4,179.9 1339.4,153 1344.1,153 1344.1,165.2 1356,153 1361.7,153 1351.2,163.8 1362.5,179.9 "/></g></g><g class="st5"><g><defs><rect id="SVGID_67_" x="-55" y="-40" width="1700.8" height="850.4"/></defs><clipPath id="SVGID_68_"><use xlink:href="#SVGID_67_"  style="overflow:visible;"/></clipPath><polygon class="st39" points="1364.9,179.9 1364.9,153 1384.3,153 1384.3,157.1 1369.6,157.1 1369.6,164.1 1383,164.1 1383,168 1369.6,168 1369.6,175.9 1384.3,175.9 1384.3,179.9 "/></g></g><g class="st5"><g><defs><rect id="SVGID_69_" x="-55" y="-40" width="1700.8" height="850.4"/></defs><clipPath id="SVGID_70_"><use xlink:href="#SVGID_69_"  style="overflow:visible;"/></clipPath><polygon class="st40" points="1399.1,157.1 1399.1,179.9 1394.5,179.9 1394.5,157.1 1386,157.1 1386,153 1407.7,153 1407.7,157.1 "/></g></g><g class="st5"><g><defs><rect id="SVGID_71_" x="-55" y="-40" width="1700.8" height="850.4"/></defs><clipPath id="SVGID_72_"><use xlink:href="#SVGID_71_"  style="overflow:visible;"/></clipPath><rect x="1410.8" y="153" class="st41" width="4.7" height="26.9"/></g></g><g class="st5"><g><defs><rect id="SVGID_73_" x="-55" y="-40" width="1700.8" height="850.4"/></defs><clipPath id="SVGID_74_"><use xlink:href="#SVGID_73_"  style="overflow:visible;"/></clipPath><polygon class="st42" points="1437.6,179.9 1425.5,160 1425.4,160 1425.4,179.9 1420.9,179.9 1420.9,153 1425.9,153 1438.1,172.9 1438.2,172.9 1438.2,153 1442.6,153 1442.6,179.9"/></g></g><g class="st5"><g><defs><rect id="SVGID_75_" x="-55" y="-40" width="1700.8" height="850.4"/></defs><clipPath id="SVGID_76_"><use xlink:href="#SVGID_75_"  style="overflow:visible;"/></clipPath><path class="st43" d="M1468.5,179.9l-0.7-3c-1.9,2.4-4.6,3.6-8.1,3.6c-4,0-7.1-1.4-9.5-4.1c-2.2-2.6-3.3-5.9-3.3-10.1c0-3.9,1.1-7.2,3.4-10c2.4-2.7,5.5-4,9.3-4c1.5,0,2.9,0.2,4.2,0.6c1.3,0.4,2.4,0.9,3.4,1.7c2.2,1.6,3.4,3.9,3.8,6.9h-4.5c-0.1-0.8-0.4-1.6-0.8-2.3s-0.9-1.2-1.5-1.7s-1.3-0.8-2.1-1.1c-0.8-0.2-1.6-0.4-2.5-0.4c-2.7,0-4.8,1.1-6.2,3.2c-1.3,1.9-2,4.2-2,7c0,2.9,0.7,5.3,2,7.1c1.5,2.1,3.5,3.2,6.2,3.2c1.2,0,2.2-0.2,3.2-0.5c0.9-0.3,1.7-0.8,2.3-1.5s1.1-1.4,1.5-2.3c0.3-0.9,0.5-1.9,0.5-3.1h-7.3v-3.6h11.5v14.2L1468.5,179.9L1468.5,179.9z"/></g></g><g class="st5"><g><defs><rect id="SVGID_77_" x="-55" y="-40" width="1700.8" height="850.4"/></defs><clipPath id="SVGID_78_"><use xlink:href="#SVGID_77_"  style="overflow:visible;"/></clipPath><line class="st44" x1="1224.7" y1="61.1" x2="1510.6" y2="61.1"/></g></g><g class="st5"><g><defs><rect id="SVGID_79_" x="-55" y="-40" width="1700.8" height="850.4"/></defs><clipPath id="SVGID_80_"><use xlink:href="#SVGID_79_"  style="overflow:visible;"/></clipPath><line class="st45" x1="1224.7" y1="128.2" x2="1510.6" y2="128.2"/></g></g><g class="st5"><g><defs><rect id="SVGID_81_" x="-55" y="-40" width="1700.8" height="850.4"/></defs><clipPath id="SVGID_82_"><use xlink:href="#SVGID_81_"  style="overflow:visible;"/></clipPath><path class="st46" d="M1284.7,461.3"/></g></g></g></svg>