<?xml version="1.0" encoding="utf-8"?>
<!-- Generator: Adobe Illustrator 19.0.0, SVG Export Plug-In . SVG Version: 6.00 Build 0)  -->
<svg version="1.1" id="Layer_1" xmlns="http://www.w3.org/2000/svg" xmlns:xlink="http://www.w3.org/1999/xlink" x="0px" y="0px"
	 viewBox="594 -65.4 267.4 66" style="enable-background:new 594 -65.4 267.4 66;" xml:space="preserve">
<style type="text/css">
	.st0{display:none;fill:#151143;}
	.st1{fill:#2B3990;}
	.st2{fill:#FFFFFF;}
	.st3{fill:#FFF200;}
	.st4{display:none;}
	.st5{display:inline;}
	.st6{clip-path:url(#SVGID_2_);fill:#FFF200;}
	.st7{clip-path:url(#SVGID_4_);fill:#151143;}
	.st8{clip-path:url(#SVGID_6_);fill:#151143;}
	.st9{clip-path:url(#SVGID_8_);fill:#151143;}
	.st10{clip-path:url(#SVGID_10_);fill:#151143;}
	.st11{clip-path:url(#SVGID_12_);fill:#151143;}
	.st12{clip-path:url(#SVGID_14_);fill:#151143;}
	.st13{clip-path:url(#SVGID_16_);fill:#151143;}
	.st14{clip-path:url(#SVGID_18_);fill:#151143;}
	.st15{clip-path:url(#SVGID_20_);fill:#151143;}
	.st16{clip-path:url(#SVGID_22_);fill:#151143;}
	.st17{clip-path:url(#SVGID_24_);fill:#151143;}
	.st18{clip-path:url(#SVGID_26_);fill:#151143;}
	.st19{clip-path:url(#SVGID_28_);fill:#151143;}
	.st20{clip-path:url(#SVGID_30_);fill:#151143;}
	.st21{clip-path:url(#SVGID_32_);fill:#151143;}
	.st22{clip-path:url(#SVGID_34_);fill:#151143;}
	.st23{clip-path:url(#SVGID_36_);fill:#151143;}
	.st24{clip-path:url(#SVGID_38_);fill:#151143;}
	.st25{clip-path:url(#SVGID_40_);fill:#151143;}
	.st26{clip-path:url(#SVGID_42_);fill:#151143;}
	.st27{clip-path:url(#SVGID_44_);fill:#151143;}
	.st28{clip-path:url(#SVGID_46_);fill:#151143;}
	.st29{clip-path:url(#SVGID_48_);fill:#151143;}
	.st30{clip-path:url(#SVGID_50_);fill:#151143;}
	.st31{clip-path:url(#SVGID_52_);fill:#151143;}
	.st32{clip-path:url(#SVGID_54_);fill:#151143;}
	.st33{clip-path:url(#SVGID_56_);fill:#151143;}
	.st34{clip-path:url(#SVGID_58_);fill:#151143;}
	.st35{clip-path:url(#SVGID_60_);fill:#151143;}
	.st36{clip-path:url(#SVGID_62_);fill:#151143;}
	.st37{clip-path:url(#SVGID_64_);fill:#151143;}
	.st38{clip-path:url(#SVGID_66_);fill:#151143;}
	.st39{clip-path:url(#SVGID_68_);fill:#151143;}
	.st40{clip-path:url(#SVGID_70_);fill:#151143;}
	.st41{clip-path:url(#SVGID_72_);fill:#151143;}
	.st42{clip-path:url(#SVGID_74_);fill:#151143;}
	.st43{clip-path:url(#SVGID_76_);fill:#151143;}
	.st44{clip-path:url(#SVGID_78_);fill:none;stroke:#262262;stroke-miterlimit:10;}
	.st45{clip-path:url(#SVGID_80_);fill:none;stroke:#262262;stroke-miterlimit:10;}
	.st46{clip-path:url(#SVGID_82_);fill:#FFFFFF;}
</style>
<rect x="594.5" y="-65.1" class="st0" width="1699.7" height="642.1"/>
<g>
	<path class="st1" d="M806.2-8.9c0.5,0,0.5-0.8,0-0.8C805.7-9.8,805.6-8.9,806.2-8.9"/>
	<path class="st2" d="M695.2-6.9c-0.4,2.3-0.8,4.4-1.1,6.6c-0.1,0.9-0.5,1.3-1.5,1.3c-1-0.1-2,0-3.1,0c-0.8,0-1.2-0.4-1-1.3
		c0.8-4.4,1.7-8.9,2.4-13.3c0.4-2.6,1-5.2,1.3-7.9c0.1-0.6,0.3-0.9,0.9-0.8c1.1,0,2.2,0,3.3,0c1.1,0,1.4,0.3,1.2,1.4
		c-0.3,1.6-0.6,3.3-0.9,4.9c0,0.2-0.2,0.6,0.1,0.7c0.3,0.1,0.4-0.2,0.6-0.4c1.4-1.9,2.9-3.9,4.3-5.8c0.4-0.5,0.8-0.9,1.6-0.8
		c1,0,1.9,0,3.1,0c-12.2-5.2-17.6-14.3-14.6-27c2.3-9.9,10.3-15.1,18.6-15.9c12.2-1.1,19.8,5.9,22.9,13.6c3.3,8.1,1.8,19.7-8.6,26.8
		c1.7-0.4,3-1,4.4-1.5c7.6-2.9,14.5-7,20.8-12.2c2.5-2.1,4.9-4.3,7-6.7c0.8-1,0.8-1-0.3-1.6c-0.3-0.1-0.8-0.1-0.7-0.6
		c0.1-0.4,0.5-0.6,0.9-0.6c0.3,0,0.7,0,1,0c1.1,0,1.9-0.5,2.2-1.6c0.2-0.6-0.3-0.8-0.7-0.9c-1-0.2-2-0.3-3-0.5
		c-0.3-0.1-0.8,0-0.8-0.5c0-0.5,0.4-0.5,0.8-0.5c0.8-0.1,1.6-0.1,2.5-0.2c0.7,0,1.4,0,1.9-0.8c0.2-0.4,0.7-0.5,0.8,0.1
		c0.1,0.2-0.1,0.5,0.3,0.5c0.4,0.1,0.5-0.2,0.7-0.4c0.4-0.6,0.8-1.2,1.3-1.8c0.4-0.4,0.9-1,1.5-0.6c0.5,0.4,0.2,1.1-0.1,1.6
		c-0.3,0.6-0.9,1.2-1.2,1.8c-0.2,0.4-0.6,0.9,0.4,0.9c0.4,0,0.6,0.4,0.4,0.7c-1,1.4,0,2.6,0.2,3.9c0.1,0.5,0.6,1.2-0.1,1.5
		c-0.6,0.3-0.7-0.6-0.9-1c-0.5-0.8-0.9-1.7-1.5-2.5c-0.3-0.4-0.5-0.5-1-0.1c-0.8,0.8-1.1,1.7-0.5,2.7c0.1,0.2,0.2,0.5,0.2,0.7
		c0.1,0.3,0,0.7-0.3,0.8c-0.3,0.2-0.5-0.1-0.7-0.3c-0.8-0.9-0.8-0.8-1.6,0.1c-2.4,2.7-5.1,5.2-7.9,7.5c-6.8,5.4-14.3,9.4-22.6,12.1
		c-2.9,0.9-5.8,1.7-8.8,2.3c1.2,0,2.5,0,3.7,0c0.6,0,0.9,0.2,1,0.9c0.6,3,0.1,6,0.7,9c0.2,0.9-0.2,1.9,0.3,3c0.2-0.8,0.4-1.4,0.5-2
		c0.5-3.4,1.3-6.7,1.7-10.2c0-0.5,0.3-0.7,0.8-0.7c1.1,0,2.3,0,3.4,0c0.6,0,0.8,0.3,0.9,0.8c0,0.3,0,0.7,0,1c-0.8,3-1.1,6.1-1.7,9.2
		c-0.5,2.3-0.7,4.7-1.2,7.1c-0.3,1.4-0.6,2.8-0.7,4.3c-0.1,0.8-0.5,1-1.3,1c-1.5,0-3.1-0.1-4.6,0c-0.9,0-1.1-0.3-1.1-1.1
		c-0.2-4-0.5-8-0.9-12c-0.2,1.4-0.6,2.8-0.8,4.2c-0.4,2.6-0.9,5.2-1.3,7.7C718.2,0.7,717.8,1,717,1c-0.9,0-1.7,0-2.6,0
		c-1.1,0-1.4-0.4-1.3-1.5c0.2-1.4,0.5-2.8,0.8-4.3c0.5-2.9,1-5.8,1.6-8.7c0.5-2.4,0.8-4.9,1.3-7.4c0.1-0.4,0.3-0.9-0.3-1.1
		c-0.6-0.2-1.7,0.2-1.8,0.7c-0.2,1.1-0.4,2.2-0.6,3.3c-0.8,5.2-1.7,10.4-2.7,15.6c-0.2,0.8-0.3,1.7-0.4,2.5C710.8,0.8,710.5,1,710,1
		c-1.2,0-2.4,0-3.5,0c-0.7,0-1-0.4-1-1.1c0-1.3,0.5-2.4,0.7-3.7c0.5-3,1-6,1.5-8.9c0.4-2.5,0.9-5,1.4-7.5c0.1-0.4,0.1-0.7,0.1-1.1
		c0-0.5-0.3-0.7-0.9-0.7c-0.7,0-0.6,0.3-0.5,0.7c0,0.2,0,0.3-0.1,0.5c-2.8,3.1-5.1,6.5-7.7,9.8c-0.3,0.4-0.3,0.8-0.1,1.3
		c1,2.4,2,4.9,3.1,7.3c0.4,0.7,0.6,1.5,0.9,2.3c0.2,0.7,0,1.2-0.8,1.2c-1.2,0-2.5,0-3.7,0c-0.6,0-0.9-0.4-1-0.9
		c-0.7-2.1-1.7-4.1-2.6-6.2C695.5-6.3,695.4-6.5,695.2-6.9 M704.5-43.8c-0.2,5.2,3.9,8.8,8.2,8.8c4.8,0.1,8.6-3.6,8.7-8.2
		c0.2-5.4-3.9-8.8-8.3-9C708.7-52.4,704.2-48.1,704.5-43.8"/>
	<path class="st2" d="M678.3-22.1c-5.1-0.8-9-3.4-12.8-6.3c-0.7-0.5-1.4-1.1-2.1-1.6c-0.5-0.4-0.9-0.2-1,0.6
		c-0.3,1.8-0.7,3.7-0.9,5.5c-0.1,0.9-0.5,1.1-1.4,1.1c-5.7,0-11.4,0-17.1,0c-1.1,0-1.9-0.8-1.7-1.9c0.5-3,1.1-6,1.6-9
		c0.5-3,1-6.1,1.5-9.1c1-5.3,2-10.7,2.9-16c0.3-1.8,0.9-3.6,0.9-5.5c0-0.9,0.5-1,1.3-1c3.2,0,6.4,0,9.7,0c3.1,0,6.1-0.1,9.2,0
		c2.9,0.2,5.8,0.4,8.7,1c3.1,0.7,5.8,2,7.8,4.3c2.2,2.5,3.4,5.4,3.6,8.7c0.4,5.5-1.4,10.1-5,14.2c-3,3.3-6.5,5.8-11,6.8
		c-0.2,0-0.4,0.1-0.5,0.3c-0.1,0.3,0.2,0.4,0.4,0.5c2.1,1.4,4.5,2.1,6.9,2.7c0.6,0.1,1.2,0.3,1.7,0.5c0.9,0.3,1.3,1.5,0.9,2.7
		c-0.2,0.6-0.1,0.6,0.5,0.8c1.4,0.3,2.9,0.1,4.3,0.6c2.2,0.8,3.4,2,2.7,4.7c-0.4,1.5-0.4,3.2-0.8,4.8c-0.6,3-1.2,6-1.5,9
		c-0.4,2.8-2.5,4.2-4.8,4.4c-2.8,0.3-5.7,0.5-8.5-0.3c-1.4-0.4-2.3-1.5-2.3-2.9c0-1.5,0.3-2.9,0.6-4.3c0.3-2,0.7-3.9,1-5.9
		c0.4-2.1,0.6-4.2,1.1-6.2C674.5-20.6,676.1-21.6,678.3-22.1 M670.7-60.5c-0.7,0-1.4,0-2.1,0c-0.5,0-0.7,0.2-0.8,0.7
		c-0.5,2.7-1,5.5-1.5,8.2c-0.8,4.4-1.4,8.8-2.4,13.1c-0.4,1.7-0.1,3.2,1.5,4.2c0.6,0.4,1.1,1.1,2,0.9c1.5-0.3,3.1-0.4,4.6-1
		c3.4-1.2,6.3-3.1,8.6-5.9c3.1-3.8,4.1-8.1,2.8-12.8c-0.7-2.3-2.2-4.2-4.3-5.4C676.6-60,673.7-60.3,670.7-60.5 M678.5-1.8
		c2.1,0,2.7-0.6,3-2.4c0.5-3,1.1-5.9,1.6-8.9c0.2-1.3,0.5-2.6,0.8-3.9c0.3-1.6,0-2.3-1.2-2.3c-2,0-3.3,0.1-3.4,2.5
		c0,0.1,0,0.3-0.1,0.4c-0.8,4.4-1.6,8.8-2.4,13.2c-0.2,0.8,0.3,1.2,0.9,1.3C678.1-1.8,678.4-1.8,678.5-1.8"/>
	<path class="st2" d="M612.3-65.2c1.8,0,3.7,0.1,5.5,0c3-0.1,6,0.2,9,0.5c3.7,0.3,7.3,1.4,10.1,4.1c1.7,1.6,3,3.5,3.8,5.8
		c1,3.1,1,6.2,0.3,9.4c-1,4.3-3.3,7.7-6.4,10.6c-1.9,1.7-4.2,3-6.6,4c-3.4,1.4-6.8,1.7-10.4,1.5c-0.7,0-1.4-0.5-2,0
		c-0.5,0.5-0.3,1.3-0.4,2c-0.3,1.3-0.6,2.5-0.6,3.9c0,0.8-0.6,0.9-1.3,0.9c-3.2,0-6.4,0-9.6,0c-2.6,0-5.2,0-7.8,0
		c-1.2,0-1.9-0.9-1.6-2.2c0.6-2.7,0.9-5.4,1.6-8c0.7-3.1,1.1-6.3,1.8-9.5c0.6-2.6,0.9-5.3,1.3-7.9c0.8-4.6,1.6-9.2,2.3-13.9
		c0.1-1,0.6-1.1,1.4-1.1C605.8-65.2,609-65.2,612.3-65.2 M619.4-33.7c1.5,0,3-0.1,4.5-0.4c3-0.6,5.6-2.1,7.8-4.1
		c2.7-2.4,4.4-5.4,5.1-9c0.8-4.2-0.5-7.7-3.6-10.4c-2.3-2-5.2-2.9-8.2-2.9c-0.8,0-1.6,0-2.4-0.3c-1.3-0.4-1.8,0-2,1.3
		c-0.4,2.1-0.8,4.2-1.2,6.4c-0.8,4.3-1.4,8.7-2.3,13c-0.3,1.6-0.6,3.1-0.8,4.7c-0.2,1.4,0.1,1.6,1.4,1.7
		C618.3-33.7,618.9-33.7,619.4-33.7"/>
	<path class="st2" d="M642.2,1c-2,0-3.3,0-4.6,0c-1,0-1.3-0.3-1.2-1.3c0.2-1.5,0.5-3,0.8-4.5c0.3-1.8,0.6-3.5,0.9-5.3
		c0.7-3.6,1.3-7.1,1.8-10.7c0.2-1.4,0.3-1.4,1.6-1.4c2.4,0.1,4.8-0.2,7.2,0c1.4,0.2,2.8,0.4,4,1.3c0.8,0.6,1.3,1.3,1.2,2.3
		c0,2.1-0.5,4.1-1.1,6.1c-0.2,0.6-0.5,1.2-1.1,1.6c-0.3,0.2-0.6,0.5-0.2,0.9c0.9,1,0.6,2.2,0.4,3.3c-0.2,1.5-0.5,2.9-0.8,4.3
		c-0.3,1.5-1.4,2.2-2.7,2.7C646.3,1.2,643.9,1,642.2,1 M645.1-12.5c1.6-0.1,2.8-0.7,2.9-1.8c0.1-1.1,0.3-2.2,0.5-3.3
		c0.1-0.6,0-1.2-0.5-1.4c-0.9-0.2-1.7-0.7-2.7-0.4c-0.3,0.1-0.2,0.5-0.3,0.8c-0.3,1.7-0.5,3.4-0.8,5C644-12.5,644.1-12.5,645.1-12.5
		 M643.6-2.2c1.3,0,2.1-0.4,2.3-1.3c0.3-1.2,0.5-2.5,0.7-3.8c0.2-1.1-0.2-1.5-1.4-1.6c-1.5-0.2-2,0.1-2.1,1.2
		c-0.2,1.4-0.5,2.8-0.6,4.2C642.3-2.2,642.3-2.2,643.6-2.2"/>
	<path class="st2" d="M660.8,1c-1,0-2,0-3.1,0c-1.5,0-2.8-0.7-3.8-1.7c-0.3-0.3-0.4-0.7-0.4-1.1c0.4-3.3,0.9-6.6,1.6-9.9
		c0.4-1.8,0.7-3.7,0.9-5.5c0.3-2.4,1.1-4.1,4.2-4.8c3-0.6,6-0.8,9,0.2c2.1,0.7,3.1,2,2.4,4.5c-0.5,1.7-0.6,3.5-0.9,5.3
		c-0.6,3.3-1.1,6.5-1.8,9.8c-0.2,1.2-1.2,1.9-2.3,2.5C664.7,1.2,662.7,1,660.8,1 M661-1.8c1.5,0.2,2.7-0.9,2.9-2.4
		c0.3-3,1.1-5.8,1.5-8.8c0.2-1.7,0.7-3.3,0.8-5c0-0.5,0-0.8-0.5-1.1c-1.7-0.9-3.9,0-4.2,1.9c-0.8,4.4-1.5,8.9-2.3,13.3
		C658.9-2.5,659.5-1.7,661-1.8"/>
	<path class="st2" d="M743.8-11.3c1.1,0,2.1,0,3.2,0c0.8,0,1.1,0.4,1,1.1c-0.4,2.3-0.8,4.7-1.2,7c-0.2,0.9-0.4,1.9-0.5,2.8
		c-0.1,0.5-0.3,0.8-0.8,0.9c-0.8,0.2-1.6,0.6-2.5,0.5c-1-0.1-1.9,0.4-2.8,0.3c-2.2-0.2-4.4-0.2-6.6-0.7c-1.4-0.3-2.4-1.6-2.3-3.1
		c0.2-3.1,0.9-6.1,1.4-9.2c0.3-2.1,0.8-4.2,1.1-6.3c0.2-1.9,1.3-3.1,3.1-3.8c1.7-0.6,3.6-0.7,5.3-0.8c1.8-0.1,3.7,0.2,5.4,1.1
		c1.3,0.7,2,1.8,1.8,3.2c-0.2,1.1-0.2,2.1-0.6,3.2c-0.2,0.5-0.4,0.7-0.9,0.7c-1.2,0-2.4,0-3.5,0c-0.8,0-1.1-0.5-0.9-1.2
		c0.1-0.7,0.2-1.4,0.3-2c0.1-1.1-0.1-1.4-1.2-1.7c-1.5-0.4-3,0.6-3.3,2.2c-0.7,3.7-1.4,7.4-2.1,11.1c-0.2,0.9-0.3,1.9-0.5,2.8
		c-0.1,0.4,0.1,0.6,0.3,0.9c0.4,0.5,1,0.6,1.6,0.6c3.2,0,2.3,0,2.9-2.5c0.2-0.9,0.3-1.9,0.5-2.8c0.1-0.6,0-0.9-0.7-0.9
		c-1.8,0-1.9-0.2-1.6-2c0.1-0.8,0.4-1.4,1.4-1.2C742-11.2,742.9-11.3,743.8-11.3"/>
	<path class="st3" d="M766.4-4.6l3.3,2.1c-0.9,1.4-2,2.4-3.4,3.1c-1.4,0.7-2.9,1.1-4.7,1.1c-2.4,0-4.3-0.8-5.7-2.4
		c-1.4-1.6-2-3.8-2-6.6c0-2,0.3-3.9,0.8-5.7c0.5-1.8,1.2-3.4,2.2-4.7c0.9-1.3,2-2.2,3.3-2.9c1.3-0.7,2.7-1,4.2-1
		c2,0,3.6,0.5,4.9,1.6c1.3,1.1,2.1,2.6,2.4,4.6l-3.7,0.6c-0.2-1-0.6-1.8-1.2-2.4c-0.6-0.6-1.5-0.9-2.5-0.9c-0.8,0-1.6,0.2-2.3,0.6
		c-0.7,0.4-1.3,1-1.8,1.9c-0.6,1.1-1.2,2.4-1.5,4c-0.4,1.6-0.6,3.2-0.6,4.8c0,1.5,0.4,2.7,1.1,3.5c0.7,0.9,1.7,1.3,2.9,1.3
		c0.9,0,1.7-0.2,2.5-0.7C765.3-3,765.9-3.7,766.4-4.6"/>
	<polygon class="st3" points="771.6,1.3 776.7,-21.2 788.9,-21.2 788.1,-17.6 780.1,-17.6 778.9,-12.2 785.6,-12.2 784.8,-8.6 
		778.1,-8.6 776.7,-2.3 786.9,-2.3 786,1.3 	"/>
	<polygon class="st3" points="788.4,1.3 793.4,-21.2 797.8,-21.2 802.9,-5.5 806.4,-21.2 810.5,-21.2 805.4,1.3 801.4,1.3 
		796.1,-15.1 792.4,1.3 	"/>
	<polygon class="st3" points="813.5,1.3 817.7,-17.5 812.2,-17.5 813.1,-21.2 827.8,-21.2 827,-17.5 822.1,-17.5 817.8,1.3 	"/>
	<polygon class="st3" points="825.9,1.3 831,-21.2 843.3,-21.2 842.4,-17.6 834.5,-17.6 833.3,-12.2 839.9,-12.2 839.1,-8.6 
		832.5,-8.6 831,-2.3 841.2,-2.3 840.4,1.3 	"/>
	<path class="st3" d="M842.7,1.3l5.1-22.5h5.6c2.7,0,4.7,0.5,6.1,1.5c1.3,1,2,2.5,2,4.5c0,1.7-0.5,3.1-1.4,4.2
		c-0.9,1.1-2.3,1.9-4,2.2l3.6,10.1h-4.4L852-8.1h-3L847,1.3H842.7z M849.8-11.6h2.8c1.5,0,2.7-0.3,3.5-0.9c0.8-0.6,1.2-1.4,1.2-2.6
		c0-1-0.3-1.7-0.9-2.1c-0.6-0.4-1.5-0.7-2.7-0.7h-2.5L849.8-11.6z"/>
</g>
<g class="st4">
	<g class="st5">
		<defs>
			<rect id="SVGID_1_" x="1794.3" y="-64.9" width="444.7" height="259.1"/>
		</defs>
		<clipPath id="SVGID_2_">
			<use xlink:href="#SVGID_1_"  style="overflow:visible;"/>
		</clipPath>
		<path class="st6" d="M2189.1,193.9h-345c-27.5,0-49.8-22.3-49.8-49.8V-78.1c0-27.5,22.3-49.8,49.8-49.8h345
			c27.5,0,49.8,22.3,49.8,49.8V144C2239,171.5,2216.6,193.9,2189.1,193.9"/>
	</g>
</g>
<g class="st4">
	<g class="st5">
		<defs>
			<rect id="SVGID_3_" x="594" y="-65.4" width="1700.8" height="850.4"/>
		</defs>
		<clipPath id="SVGID_4_">
			<use xlink:href="#SVGID_3_"  style="overflow:visible;"/>
		</clipPath>
		<polygon class="st7" points="1862.6,-14.3 1862.6,8.5 1858,8.5 1858,-14.3 1849.5,-14.3 1849.5,-18.4 1871.2,-18.4 1871.2,-14.3 
					"/>
	</g>
	<g class="st5">
		<defs>
			<rect id="SVGID_5_" x="594" y="-65.4" width="1700.8" height="850.4"/>
		</defs>
		<clipPath id="SVGID_6_">
			<use xlink:href="#SVGID_5_"  style="overflow:visible;"/>
		</clipPath>
		<path class="st8" d="M1898.4-5c0,4-1.1,7.3-3.4,10c-2.4,2.8-5.5,4.2-9.4,4.2c-3.9,0-7-1.4-9.4-4.2c-2.3-2.7-3.4-6-3.4-10
			c0-2,0.3-3.8,0.9-5.4c0.6-1.6,1.4-3.1,2.6-4.4c1.2-1.4,2.5-2.4,4.1-3.1c1.6-0.7,3.3-1,5.2-1c3.9,0,7.1,1.4,9.4,4.2
			c1.1,1.3,2,2.8,2.5,4.4C1898.1-8.8,1898.4-7,1898.4-5 M1893.7-5c0-2.8-0.6-5.2-1.9-7c-1.5-2.1-3.6-3.2-6.2-3.2
			c-2.7,0-4.8,1.1-6.2,3.2c-1.3,1.9-2,4.2-2,7c0,2.9,0.7,5.3,2,7.1c1.5,2.1,3.5,3.2,6.2,3.2c2.6,0,4.7-1.1,6.2-3.2
			C1893.1,0.2,1893.7-2.1,1893.7-5"/>
	</g>
	<g class="st5">
		<defs>
			<rect id="SVGID_7_" x="594" y="-65.4" width="1700.8" height="850.4"/>
		</defs>
		<clipPath id="SVGID_8_">
			<use xlink:href="#SVGID_7_"  style="overflow:visible;"/>
		</clipPath>
		<path class="st9" d="M1923.5,3.3c-0.5,1.3-1.2,2.4-2.2,3.2c-1,0.9-2.1,1.5-3.5,2c-1.4,0.4-2.9,0.7-4.6,0.7c-3.4,0-6-0.9-7.9-2.6
			c-2-1.8-3-4.4-3-7.8v-17.2h4.6v15.7c0,1.2,0.1,2.3,0.2,3.1c0.1,0.9,0.4,1.6,0.7,2.1c0.9,1.7,2.7,2.6,5.4,2.6
			c2.7,0,4.5-0.9,5.4-2.6c0.6-1.1,0.9-2.8,0.9-5.2v-15.7h4.7v17.2C1924.3,0.5,1924,2,1923.5,3.3"/>
	</g>
	<g class="st5">
		<defs>
			<rect id="SVGID_9_" x="594" y="-65.4" width="1700.8" height="850.4"/>
		</defs>
		<clipPath id="SVGID_10_">
			<use xlink:href="#SVGID_9_"  style="overflow:visible;"/>
		</clipPath>
		<path class="st10" d="M1947.1,8.5c-0.4-0.7-0.7-2.1-0.7-3.9c0-2.6-0.3-4.4-1-5.5c-0.8-1.1-2.3-1.6-4.3-1.6h-6.9V8.5h-4.7v-26.9
			h12.9c5.8,0,8.7,2.5,8.7,7.4c0,3.4-1.5,5.6-4.4,6.7v0.1c2.7,0.5,4,2.4,4,5.7c0,3.7,0.5,6,1.4,7.1H1947.1z M1946.4-10.4
			c0-2.7-1.5-4.1-4.6-4.1h-7.7v8.3h7.7C1944.9-6.2,1946.4-7.6,1946.4-10.4"/>
	</g>
	<g class="st5">
		<defs>
			<rect id="SVGID_11_" x="594" y="-65.4" width="1700.8" height="850.4"/>
		</defs>
		<clipPath id="SVGID_12_">
			<use xlink:href="#SVGID_11_"  style="overflow:visible;"/>
		</clipPath>
		<polygon class="st11" points="1994.9,8.5 1990.1,8.5 1984.8,-12 1984.7,-12 1979.3,8.5 1974.4,8.5 1967.5,-18.4 1972.2,-18.4 
			1977,2.3 1977,2.3 1982.4,-18.4 1987.2,-18.4 1992.4,2.3 1992.4,2.3 1997.4,-18.4 2002.1,-18.4 		"/>
	</g>
	<g class="st5">
		<defs>
			<rect id="SVGID_13_" x="594" y="-65.4" width="1700.8" height="850.4"/>
		</defs>
		<clipPath id="SVGID_14_">
			<use xlink:href="#SVGID_13_"  style="overflow:visible;"/>
		</clipPath>
		<polygon class="st12" points="2021.9,8.5 2021.9,-3.6 2009.7,-3.6 2009.7,8.5 2005,8.5 2005,-18.4 2009.7,-18.4 2009.7,-7.7 
			2021.9,-7.7 2021.9,-18.4 2026.6,-18.4 2026.6,8.5 		"/>
	</g>
	<g class="st5">
		<defs>
			<rect id="SVGID_15_" x="594" y="-65.4" width="1700.8" height="850.4"/>
		</defs>
		<clipPath id="SVGID_16_">
			<use xlink:href="#SVGID_15_"  style="overflow:visible;"/>
		</clipPath>
		<path class="st13" d="M2056.3-5c0,4-1.1,7.3-3.4,10c-2.4,2.8-5.5,4.2-9.4,4.2c-3.9,0-7-1.4-9.4-4.2c-2.3-2.7-3.4-6-3.4-10
			c0-2,0.3-3.8,0.9-5.4c0.6-1.6,1.4-3.1,2.6-4.4c1.2-1.4,2.5-2.4,4.1-3.1c1.6-0.7,3.3-1,5.2-1c3.9,0,7.1,1.4,9.4,4.2
			c1.1,1.3,2,2.8,2.5,4.4C2056.1-8.8,2056.3-7,2056.3-5 M2051.7-5c0-2.8-0.6-5.2-1.9-7c-1.5-2.1-3.6-3.2-6.2-3.2
			c-2.7,0-4.8,1.1-6.2,3.2c-1.3,1.9-2,4.2-2,7c0,2.9,0.7,5.3,2,7.1c1.5,2.1,3.5,3.2,6.2,3.2c2.6,0,4.7-1.1,6.2-3.2
			C2051,0.2,2051.7-2.1,2051.7-5"/>
	</g>
	<g class="st5">
		<defs>
			<rect id="SVGID_17_" x="594" y="-65.4" width="1700.8" height="850.4"/>
		</defs>
		<clipPath id="SVGID_18_">
			<use xlink:href="#SVGID_17_"  style="overflow:visible;"/>
		</clipPath>
		<polygon class="st14" points="2060.5,8.5 2060.5,-18.4 2065.2,-18.4 2065.2,4.5 2078.8,4.5 2078.8,8.5 		"/>
	</g>
	<g class="st5">
		<defs>
			<rect id="SVGID_19_" x="594" y="-65.4" width="1700.8" height="850.4"/>
		</defs>
		<clipPath id="SVGID_20_">
			<use xlink:href="#SVGID_19_"  style="overflow:visible;"/>
		</clipPath>
		<path class="st15" d="M2102,0.7c0,2.8-1.1,5-3.3,6.5c-1.9,1.3-4.3,2-7.3,2c-3.3,0-5.8-0.8-7.8-2.3c-2.1-1.7-3.2-4.1-3.3-7.3h4.6
			c0,3.8,2.3,5.7,6.8,5.7c1.9,0,3.3-0.4,4.3-1.3c0.8-0.7,1.3-1.6,1.3-2.8c0-1.5-0.8-2.6-2.3-3.4c-0.4-0.2-1.1-0.4-1.9-0.7
			c-0.9-0.2-1.9-0.5-3.2-0.8c-2.8-0.6-4.7-1.3-5.8-2c-1.8-1.2-2.7-3.1-2.7-5.6c0-2.5,1-4.6,3.1-6c1.8-1.2,4-1.9,6.6-1.9
			c2.9,0,5.2,0.7,7.1,2.2c2,1.5,3,3.7,3,6.3h-4.7c-0.2-3.1-2.1-4.7-5.9-4.7c-1.2,0-2.2,0.3-3.2,1c-1,0.7-1.5,1.6-1.5,2.7
			c0,1.5,0.8,2.5,2.4,3.2c0.3,0.1,0.8,0.3,1.7,0.5c0.9,0.2,2.1,0.5,3.6,0.8c1.3,0.3,2.4,0.6,3.4,0.9c0.9,0.4,1.7,0.8,2.3,1.2
			C2101.2-3.6,2102-1.7,2102,0.7"/>
	</g>
	<g class="st5">
		<defs>
			<rect id="SVGID_21_" x="594" y="-65.4" width="1700.8" height="850.4"/>
		</defs>
		<clipPath id="SVGID_22_">
			<use xlink:href="#SVGID_21_"  style="overflow:visible;"/>
		</clipPath>
		<path class="st16" d="M2123.4,8.5l-2.5-7.1h-10.6l-2.4,7.1h-4.9l10.2-26.9h5l10.2,26.9H2123.4z M2115.7-13.8h-0.1l-4,11.7h8.2
			L2115.7-13.8z"/>
	</g>
	<g class="st5">
		<defs>
			<rect id="SVGID_23_" x="594" y="-65.4" width="1700.8" height="850.4"/>
		</defs>
		<clipPath id="SVGID_24_">
			<use xlink:href="#SVGID_23_"  style="overflow:visible;"/>
		</clipPath>
		<polygon class="st17" points="2130.8,8.5 2130.8,-18.4 2135.5,-18.4 2135.5,4.5 2149.1,4.5 2149.1,8.5 		"/>
	</g>
	<g class="st5">
		<defs>
			<rect id="SVGID_25_" x="594" y="-65.4" width="1700.8" height="850.4"/>
		</defs>
		<clipPath id="SVGID_26_">
			<use xlink:href="#SVGID_25_"  style="overflow:visible;"/>
		</clipPath>
		<polygon class="st18" points="2152.3,8.5 2152.3,-18.4 2171.7,-18.4 2171.7,-14.3 2157,-14.3 2157,-7.3 2170.4,-7.3 2170.4,-3.4 
			2157,-3.4 2157,4.5 2171.7,4.5 2171.7,8.5 		"/>
	</g>
	<g class="st5">
		<defs>
			<rect id="SVGID_27_" x="594" y="-65.4" width="1700.8" height="850.4"/>
		</defs>
		<clipPath id="SVGID_28_">
			<use xlink:href="#SVGID_27_"  style="overflow:visible;"/>
		</clipPath>
		<path class="st19" d="M2193.6,8.5c-0.4-0.7-0.7-2.1-0.7-3.9c0-2.6-0.3-4.4-1-5.5c-0.8-1.1-2.3-1.6-4.3-1.6h-6.9V8.5h-4.7v-26.9
			h12.9c5.8,0,8.7,2.5,8.7,7.4c0,3.4-1.5,5.6-4.4,6.7v0.1c2.7,0.5,4,2.4,4,5.7c0,3.7,0.5,6,1.4,7.1H2193.6z M2192.9-10.4
			c0-2.7-1.5-4.1-4.6-4.1h-7.7v8.3h7.7C2191.4-6.2,2192.9-7.6,2192.9-10.4"/>
	</g>
	<g class="st5">
		<defs>
			<rect id="SVGID_29_" x="594" y="-65.4" width="1700.8" height="850.4"/>
		</defs>
		<clipPath id="SVGID_30_">
			<use xlink:href="#SVGID_29_"  style="overflow:visible;"/>
		</clipPath>
		<polygon class="st20" points="1823.6,81.5 1823.6,54.6 1828.3,54.6 1828.3,77.5 1841.9,77.5 1841.9,81.5 		"/>
	</g>
	<g class="st5">
		<defs>
			<rect id="SVGID_31_" x="594" y="-65.4" width="1700.8" height="850.4"/>
		</defs>
		<clipPath id="SVGID_32_">
			<use xlink:href="#SVGID_31_"  style="overflow:visible;"/>
		</clipPath>
		<path class="st21" d="M1862.4,81.5l-2.5-7.1h-10.6l-2.4,7.1h-4.9l10.2-26.9h5l10.2,26.9H1862.4z M1854.7,59.2h-0.1l-4,11.7h8.2
			L1854.7,59.2z"/>
	</g>
	<g class="st5">
		<defs>
			<rect id="SVGID_33_" x="594" y="-65.4" width="1700.8" height="850.4"/>
		</defs>
		<clipPath id="SVGID_34_">
			<use xlink:href="#SVGID_33_"  style="overflow:visible;"/>
		</clipPath>
		<polygon class="st22" points="1886.4,81.5 1874.2,61.6 1874.1,61.6 1874.1,81.5 1869.7,81.5 1869.7,54.6 1874.6,54.6 1886.8,74.5 
			1886.9,74.5 1886.9,54.6 1891.3,54.6 1891.3,81.5 		"/>
	</g>
	<g class="st5">
		<defs>
			<rect id="SVGID_35_" x="594" y="-65.4" width="1700.8" height="850.4"/>
		</defs>
		<clipPath id="SVGID_36_">
			<use xlink:href="#SVGID_35_"  style="overflow:visible;"/>
		</clipPath>
		<path class="st23" d="M1919.6,68c0,4-0.9,7.2-2.7,9.6c-2.1,2.6-5,3.9-8.9,3.9h-11.1V54.6h11.1c3.9,0,6.8,1.3,8.9,3.9
			C1918.7,60.8,1919.6,64,1919.6,68 M1915,68c0-1.5-0.1-2.8-0.4-4c-0.3-1.1-0.7-2-1.2-2.8c-1.4-1.9-3.8-2.8-7.1-2.8h-4.6v19.3h4.6
			c3.4,0,5.7-0.9,7.1-2.8c0.5-0.8,1-1.7,1.2-2.9C1914.8,70.9,1915,69.6,1915,68"/>
	</g>
	<g class="st5">
		<defs>
			<rect id="SVGID_37_" x="594" y="-65.4" width="1700.8" height="850.4"/>
		</defs>
		<clipPath id="SVGID_38_">
			<use xlink:href="#SVGID_37_"  style="overflow:visible;"/>
		</clipPath>
		<path class="st24" d="M1954.7,81.5l-2.3-2.9c-1.8,2.3-4.3,3.4-7.6,3.4c-1.2,0-2.4-0.2-3.4-0.5c-1-0.4-1.9-0.9-2.6-1.6
			c-0.7-0.7-1.3-1.5-1.7-2.5c-0.4-1-0.6-2.1-0.6-3.4c0-3.1,2-5.7,6.1-7.8c-1.8-2.2-2.6-4.2-2.6-5.8c0-1,0.2-1.8,0.5-2.6
			c0.3-0.8,0.8-1.5,1.4-2s1.3-1,2.1-1.3c0.8-0.3,1.6-0.4,2.6-0.4c1.9,0,3.4,0.5,4.6,1.6c1.3,1.2,2,2.8,2,4.8c0,2.8-1.6,5.1-4.7,6.9
			l4,5c0.4-1.3,0.7-2.5,0.8-3.6h3.7c-0.3,2.6-1,4.8-2.1,6.6l5.1,6.3L1954.7,81.5L1954.7,81.5z M1944.8,69.1
			c-0.8,0.5-1.4,0.9-1.8,1.1c-0.4,0.3-0.7,0.5-0.8,0.6c-0.9,0.8-1.4,2-1.4,3.4c0,0.7,0.1,1.3,0.3,1.9c0.2,0.6,0.5,1,0.9,1.4
			c0.4,0.4,0.8,0.7,1.3,0.9c0.5,0.2,1.1,0.3,1.7,0.3c2.1,0,3.8-1,5.1-2.9L1944.8,69.1z M1949.2,60.3c0-0.9-0.2-1.7-0.7-2.2
			c-0.5-0.6-1.1-0.9-2-0.9c-0.8,0-1.5,0.3-2,0.8c-0.5,0.5-0.8,1.3-0.8,2.2c0,0.7,0.3,1.5,0.9,2.4l1.5,2
			C1948.1,63.3,1949.2,61.8,1949.2,60.3"/>
	</g>
	<g class="st5">
		<defs>
			<rect id="SVGID_39_" x="594" y="-65.4" width="1700.8" height="850.4"/>
		</defs>
		<clipPath id="SVGID_40_">
			<use xlink:href="#SVGID_39_"  style="overflow:visible;"/>
		</clipPath>
		<path class="st25" d="M2000.7,68c0,4-1.1,7.3-3.4,10c-2.4,2.8-5.5,4.2-9.4,4.2c-3.9,0-7-1.4-9.4-4.2c-2.3-2.7-3.4-6-3.4-10
			c0-2,0.3-3.8,0.9-5.4c0.6-1.6,1.4-3.1,2.6-4.4c1.2-1.4,2.5-2.4,4.1-3.1c1.6-0.7,3.3-1,5.2-1c3.9,0,7.1,1.4,9.4,4.2
			c1.1,1.3,2,2.8,2.5,4.4C2000.4,64.2,2000.7,66,2000.7,68 M1996,68c0-2.8-0.6-5.2-1.9-7c-1.5-2.1-3.6-3.2-6.2-3.2
			c-2.7,0-4.8,1.1-6.2,3.2c-1.3,1.9-2,4.2-2,7c0,2.9,0.7,5.3,2,7.1c1.5,2.1,3.5,3.2,6.2,3.2c2.6,0,4.7-1.1,6.2-3.2
			C1995.4,73.2,1996,70.9,1996,68"/>
	</g>
	<g class="st5">
		<defs>
			<rect id="SVGID_41_" x="594" y="-65.4" width="1700.8" height="850.4"/>
		</defs>
		<clipPath id="SVGID_42_">
			<use xlink:href="#SVGID_41_"  style="overflow:visible;"/>
		</clipPath>
		<path class="st26" d="M2025.6,63.1c0,2.1-0.6,3.9-1.7,5.4c-1.5,2-4,3-7.4,3h-7v10.1h-4.7V54.6h11.7
			C2022.6,54.6,2025.6,57.4,2025.6,63.1 M2021,63c0-3-1.6-4.5-4.7-4.5h-6.8v9.1h6.8c1.2,0,2.3-0.3,3.2-1
			C2020.5,65.7,2021,64.5,2021,63"/>
	</g>
	<g class="st5">
		<defs>
			<rect id="SVGID_43_" x="594" y="-65.4" width="1700.8" height="850.4"/>
		</defs>
		<clipPath id="SVGID_44_">
			<use xlink:href="#SVGID_43_"  style="overflow:visible;"/>
		</clipPath>
		<polygon class="st27" points="2029.6,81.5 2029.6,54.6 2049.1,54.6 2049.1,58.7 2034.3,58.7 2034.3,65.7 2047.8,65.7 2047.8,69.6 
			2034.3,69.6 2034.3,77.5 2049.1,77.5 2049.1,81.5 		"/>
	</g>
	<g class="st5">
		<defs>
			<rect id="SVGID_45_" x="594" y="-65.4" width="1700.8" height="850.4"/>
		</defs>
		<clipPath id="SVGID_46_">
			<use xlink:href="#SVGID_45_"  style="overflow:visible;"/>
		</clipPath>
		<path class="st28" d="M2070.9,81.5c-0.4-0.7-0.7-2.1-0.7-3.9c0-2.6-0.3-4.4-1-5.5c-0.8-1.1-2.3-1.6-4.3-1.6h-6.9v11.1h-4.7V54.6
			h12.9c5.8,0,8.7,2.5,8.7,7.4c0,3.4-1.5,5.6-4.4,6.7v0.1c2.7,0.5,4,2.4,4,5.7c0,3.7,0.5,6,1.4,7.1H2070.9z M2070.2,62.6
			c0-2.7-1.5-4.1-4.6-4.1h-7.7v8.3h7.7C2068.7,66.8,2070.2,65.4,2070.2,62.6"/>
	</g>
	<g class="st5">
		<defs>
			<rect id="SVGID_47_" x="594" y="-65.4" width="1700.8" height="850.4"/>
		</defs>
		<clipPath id="SVGID_48_">
			<use xlink:href="#SVGID_47_"  style="overflow:visible;"/>
		</clipPath>
		<path class="st29" d="M2096.9,81.5l-2.5-7.1h-10.6l-2.4,7.1h-4.9l10.2-26.9h5l10.2,26.9H2096.9z M2089.2,59.2h-0.1l-4,11.7h8.2
			L2089.2,59.2z"/>
	</g>
	<g class="st5">
		<defs>
			<rect id="SVGID_49_" x="594" y="-65.4" width="1700.8" height="850.4"/>
		</defs>
		<clipPath id="SVGID_50_">
			<use xlink:href="#SVGID_49_"  style="overflow:visible;"/>
		</clipPath>
		<polygon class="st30" points="2114.9,58.7 2114.9,81.5 2110.3,81.5 2110.3,58.7 2101.8,58.7 2101.8,54.6 2123.5,54.6 2123.5,58.7 
					"/>
	</g>
	<g class="st5">
		<defs>
			<rect id="SVGID_51_" x="594" y="-65.4" width="1700.8" height="850.4"/>
		</defs>
		<clipPath id="SVGID_52_">
			<use xlink:href="#SVGID_51_"  style="overflow:visible;"/>
		</clipPath>
		<rect x="2126.6" y="54.6" class="st31" width="4.7" height="26.9"/>
	</g>
	<g class="st5">
		<defs>
			<rect id="SVGID_53_" x="594" y="-65.4" width="1700.8" height="850.4"/>
		</defs>
		<clipPath id="SVGID_54_">
			<use xlink:href="#SVGID_53_"  style="overflow:visible;"/>
		</clipPath>
		<path class="st32" d="M2161.1,68c0,4-1.1,7.3-3.4,10c-2.4,2.8-5.5,4.2-9.4,4.2c-3.9,0-7-1.4-9.4-4.2c-2.3-2.7-3.4-6-3.4-10
			c0-2,0.3-3.8,0.9-5.4c0.6-1.6,1.4-3.1,2.6-4.4c1.2-1.4,2.5-2.4,4.1-3.1c1.6-0.7,3.3-1,5.2-1c3.9,0,7.1,1.4,9.4,4.2
			c1.1,1.3,2,2.8,2.5,4.4C2160.8,64.2,2161.1,66,2161.1,68 M2156.4,68c0-2.8-0.6-5.2-1.9-7c-1.5-2.1-3.6-3.2-6.2-3.2
			c-2.7,0-4.8,1.1-6.2,3.2c-1.3,1.9-2,4.2-2,7c0,2.9,0.7,5.3,2,7.1c1.5,2.1,3.5,3.2,6.2,3.2c2.6,0,4.7-1.1,6.2-3.2
			C2155.8,73.2,2156.4,70.9,2156.4,68"/>
	</g>
	<g class="st5">
		<defs>
			<rect id="SVGID_55_" x="594" y="-65.4" width="1700.8" height="850.4"/>
		</defs>
		<clipPath id="SVGID_56_">
			<use xlink:href="#SVGID_55_"  style="overflow:visible;"/>
		</clipPath>
		<polygon class="st33" points="2181.8,81.5 2169.6,61.6 2169.5,61.6 2169.5,81.5 2165.1,81.5 2165.1,54.6 2170.1,54.6 2182.3,74.5 
			2182.3,74.5 2182.3,54.6 2186.8,54.6 2186.8,81.5 		"/>
	</g>
	<g class="st5">
		<defs>
			<rect id="SVGID_57_" x="594" y="-65.4" width="1700.8" height="850.4"/>
		</defs>
		<clipPath id="SVGID_58_">
			<use xlink:href="#SVGID_57_"  style="overflow:visible;"/>
		</clipPath>
		<path class="st34" d="M2212.4,73.7c0,2.8-1.1,5-3.3,6.5c-1.9,1.3-4.3,2-7.3,2c-3.3,0-5.8-0.8-7.8-2.3c-2.1-1.7-3.2-4.1-3.3-7.3
			h4.6c0,3.8,2.3,5.7,6.8,5.7c1.9,0,3.3-0.4,4.3-1.3c0.8-0.7,1.3-1.6,1.3-2.8c0-1.5-0.8-2.6-2.3-3.4c-0.4-0.2-1.1-0.4-1.9-0.7
			s-1.9-0.5-3.2-0.8c-2.8-0.6-4.7-1.3-5.8-2c-1.8-1.2-2.7-3.1-2.7-5.6c0-2.6,1-4.6,3.1-6c1.8-1.2,4-1.9,6.6-1.9
			c2.9,0,5.2,0.7,7.1,2.2c2,1.5,3,3.7,3,6.3h-4.7c-0.2-3.1-2.1-4.7-5.9-4.7c-1.2,0-2.2,0.3-3.2,1c-1,0.7-1.5,1.6-1.5,2.7
			c0,1.5,0.8,2.5,2.4,3.2c0.3,0.1,0.8,0.3,1.7,0.5c0.9,0.2,2.1,0.5,3.6,0.8c1.3,0.3,2.4,0.6,3.4,0.9c0.9,0.4,1.7,0.8,2.3,1.2
			C2211.5,69.4,2212.4,71.3,2212.4,73.7"/>
	</g>
	<g class="st5">
		<defs>
			<rect id="SVGID_59_" x="594" y="-65.4" width="1700.8" height="850.4"/>
		</defs>
		<clipPath id="SVGID_60_">
			<use xlink:href="#SVGID_59_"  style="overflow:visible;"/>
		</clipPath>
		<polygon class="st35" points="1939.5,131.7 1939.5,154.5 1934.8,154.5 1934.8,131.7 1926.4,131.7 1926.4,127.6 1948,127.6 
			1948,131.7 		"/>
	</g>
	<g class="st5">
		<defs>
			<rect id="SVGID_61_" x="594" y="-65.4" width="1700.8" height="850.4"/>
		</defs>
		<clipPath id="SVGID_62_">
			<use xlink:href="#SVGID_61_"  style="overflow:visible;"/>
		</clipPath>
		<rect x="1951.1" y="127.6" class="st36" width="4.7" height="26.9"/>
	</g>
	<g class="st5">
		<defs>
			<rect id="SVGID_63_" x="594" y="-65.4" width="1700.8" height="850.4"/>
		</defs>
		<clipPath id="SVGID_64_">
			<use xlink:href="#SVGID_63_"  style="overflow:visible;"/>
		</clipPath>
		<path class="st37" d="M1980.8,152.2c-2,2-4.7,3-8,3c-3.9,0-7-1.4-9.4-4.2c-2.3-2.7-3.4-6-3.4-10c0-4,1.1-7.3,3.3-9.9
			c2.3-2.8,5.5-4.2,9.4-4.2c1.5,0,3,0.2,4.3,0.6s2.5,1,3.5,1.8c1,0.8,1.8,1.8,2.4,2.9c0.6,1.1,1,2.4,1.1,3.9h-4.7
			c-0.7-3.6-2.9-5.4-6.6-5.4c-2.7,0-4.8,1.1-6.2,3.2c-1.3,1.9-2,4.2-2,7c0,2.9,0.7,5.3,2,7.1c1.5,2.1,3.5,3.2,6.2,3.2
			c2,0,3.6-0.7,4.8-2c1.1-1.2,1.8-2.9,2-5h4.5C1984,147.5,1982.9,150.2,1980.8,152.2"/>
	</g>
	<g class="st5">
		<defs>
			<rect id="SVGID_65_" x="594" y="-65.4" width="1700.8" height="850.4"/>
		</defs>
		<clipPath id="SVGID_66_">
			<use xlink:href="#SVGID_65_"  style="overflow:visible;"/>
		</clipPath>
		<polygon class="st38" points="2005.7,154.5 1997,141.8 1993.1,145.9 1993.1,154.5 1988.4,154.5 1988.4,127.6 1993.1,127.6 
			1993.1,139.8 2005,127.6 2010.7,127.6 2000.2,138.4 2011.5,154.5 		"/>
	</g>
	<g class="st5">
		<defs>
			<rect id="SVGID_67_" x="594" y="-65.4" width="1700.8" height="850.4"/>
		</defs>
		<clipPath id="SVGID_68_">
			<use xlink:href="#SVGID_67_"  style="overflow:visible;"/>
		</clipPath>
		<polygon class="st39" points="2013.9,154.5 2013.9,127.6 2033.3,127.6 2033.3,131.7 2018.6,131.7 2018.6,138.7 2032,138.7 
			2032,142.6 2018.6,142.6 2018.6,150.5 2033.3,150.5 2033.3,154.5 		"/>
	</g>
	<g class="st5">
		<defs>
			<rect id="SVGID_69_" x="594" y="-65.4" width="1700.8" height="850.4"/>
		</defs>
		<clipPath id="SVGID_70_">
			<use xlink:href="#SVGID_69_"  style="overflow:visible;"/>
		</clipPath>
		<polygon class="st40" points="2048.1,131.7 2048.1,154.5 2043.5,154.5 2043.5,131.7 2035,131.7 2035,127.6 2056.7,127.6 
			2056.7,131.7 		"/>
	</g>
	<g class="st5">
		<defs>
			<rect id="SVGID_71_" x="594" y="-65.4" width="1700.8" height="850.4"/>
		</defs>
		<clipPath id="SVGID_72_">
			<use xlink:href="#SVGID_71_"  style="overflow:visible;"/>
		</clipPath>
		<rect x="2059.8" y="127.6" class="st41" width="4.7" height="26.9"/>
	</g>
	<g class="st5">
		<defs>
			<rect id="SVGID_73_" x="594" y="-65.4" width="1700.8" height="850.4"/>
		</defs>
		<clipPath id="SVGID_74_">
			<use xlink:href="#SVGID_73_"  style="overflow:visible;"/>
		</clipPath>
		<polygon class="st42" points="2086.6,154.5 2074.5,134.6 2074.4,134.6 2074.4,154.5 2069.9,154.5 2069.9,127.6 2074.9,127.6 
			2087.1,147.5 2087.2,147.5 2087.2,127.6 2091.6,127.6 2091.6,154.5 		"/>
	</g>
	<g class="st5">
		<defs>
			<rect id="SVGID_75_" x="594" y="-65.4" width="1700.8" height="850.4"/>
		</defs>
		<clipPath id="SVGID_76_">
			<use xlink:href="#SVGID_75_"  style="overflow:visible;"/>
		</clipPath>
		<path class="st43" d="M2117.5,154.5l-0.7-3c-1.9,2.4-4.6,3.6-8.1,3.6c-4,0-7.1-1.4-9.5-4.1c-2.2-2.6-3.3-5.9-3.3-10.1
			c0-3.9,1.1-7.2,3.4-10c2.4-2.7,5.5-4,9.3-4c1.5,0,2.9,0.2,4.2,0.6c1.3,0.4,2.4,0.9,3.4,1.7c2.2,1.6,3.4,3.9,3.8,6.9h-4.5
			c-0.1-0.8-0.4-1.6-0.8-2.3c-0.4-0.7-0.9-1.2-1.5-1.7c-0.6-0.5-1.3-0.8-2.1-1.1c-0.8-0.2-1.6-0.4-2.5-0.4c-2.7,0-4.8,1.1-6.2,3.2
			c-1.3,1.9-2,4.2-2,7c0,2.9,0.7,5.3,2,7.1c1.5,2.1,3.5,3.2,6.2,3.2c1.2,0,2.2-0.2,3.2-0.5c0.9-0.3,1.7-0.8,2.3-1.5s1.1-1.4,1.5-2.3
			c0.3-0.9,0.5-1.9,0.5-3.1h-7.3v-3.6h11.5v14.2L2117.5,154.5L2117.5,154.5z"/>
	</g>
	<g class="st5">
		<defs>
			<rect id="SVGID_77_" x="594" y="-65.4" width="1700.8" height="850.4"/>
		</defs>
		<clipPath id="SVGID_78_">
			<use xlink:href="#SVGID_77_"  style="overflow:visible;"/>
		</clipPath>
		<line class="st44" x1="1873.7" y1="35.7" x2="2159.6" y2="35.7"/>
	</g>
	<g class="st5">
		<defs>
			<rect id="SVGID_79_" x="594" y="-65.4" width="1700.8" height="850.4"/>
		</defs>
		<clipPath id="SVGID_80_">
			<use xlink:href="#SVGID_79_"  style="overflow:visible;"/>
		</clipPath>
		<line class="st45" x1="1873.7" y1="102.8" x2="2159.6" y2="102.8"/>
	</g>
	<g class="st5">
		<defs>
			<rect id="SVGID_81_" x="594" y="-65.4" width="1700.8" height="850.4"/>
		</defs>
		<clipPath id="SVGID_82_">
			<use xlink:href="#SVGID_81_"  style="overflow:visible;"/>
		</clipPath>
		<path class="st46" d="M1933.7,435.9"/>
	</g>
</g>
</svg>
